<?xml version="1.0" encoding="UTF-8"?>
<svg version="1.1" xmlns="http://www.w3.org/2000/svg" width="256" height="256">
<path d="M0 0 C0.02505615 0.98170166 0.0501123 1.96340332 0.07592773 2.97485352 C0.17165266 6.69319982 0.27143715 10.41142889 0.37231445 14.12963867 C0.41505117 15.72466244 0.45675454 17.31971431 0.49731445 18.91479492 C-0.25786266 35.9442114 -0.25786266 35.9442114 3 52 C3.96775375 58.32026832 4.10291192 64.61946116 4 71 C4.66 71 5.32 71 6 71 C6.33 75.62 6.66 80.24 7 85 C7.66 85 8.32 85 9 85 C9.10957031 85.68964844 9.21914062 86.37929687 9.33203125 87.08984375 C10.37883269 93.29405716 11.81465677 99.09957328 14 105 C20.28587352 91.34574794 17.11444232 71.14773463 17.0625 56.5 C17.05747356 54.01953216 17.05291268 51.53906332 17.04882812 49.05859375 C17.03791644 43.03904057 17.02126955 37.01952503 17 31 C17.99 31 18.98 31 20 31 C20.33 31.66 20.66 32.32 21 33 C21.99 33.33 22.98 33.66 24 34 C24 34.66 24 35.32 24 36 C26.97 36.495 26.97 36.495 30 37 C30 37.66 30 38.32 30 39 C30.70125 39.103125 31.4025 39.20625 32.125 39.3125 C35.39137647 40.09359003 38.0471852 41.42058743 41 43 C41 43.66 41 44.32 41 45 C43.97 45.495 43.97 45.495 47 46 C47 46.66 47 47.32 47 48 C47.55171875 48.11214844 48.1034375 48.22429688 48.671875 48.33984375 C51.40065211 49.11360773 53.72772943 50.26817694 56.25 51.5625 C57.14203125 52.01753906 58.0340625 52.47257812 58.953125 52.94140625 C59.96632812 53.46541016 59.96632812 53.46541016 61 54 C61 54.66 61 55.32 61 56 C63.97 56.495 63.97 56.495 67 57 C67 57.66 67 58.32 67 59 C69.97 59.495 69.97 59.495 73 60 C73 60.66 73 61.32 73 62 C73.70125 62.103125 74.4025 62.20625 75.125 62.3125 C78.39137647 63.09359003 81.0471852 64.42058743 84 66 C84 66.66 84 67.32 84 68 C84.72574219 68.11214844 85.45148438 68.22429687 86.19921875 68.33984375 C89.12563993 69.02961387 91.22287809 70.05510814 93.8125 71.5625 C94.60269531 72.01753906 95.39289063 72.47257812 96.20703125 72.94140625 C96.79871094 73.29074219 97.39039063 73.64007813 98 74 C98 75.32 98 76.64 98 78 C95.09399739 79.25664978 93.20395416 80 90 80 C90 80.66 90 81.32 90 82 C87.48046875 83.7265625 87.48046875 83.7265625 84.1875 85.625 C83.10855469 86.25664063 82.02960938 86.88828125 80.91796875 87.5390625 C78 89 78 89 75 89 C75 89.66 75 90.32 75 91 C72.525 91.495 72.525 91.495 70 92 C69.67 92.99 69.34 93.98 69 95 C68.01 95 67.02 95 66 95 C66 95.66 66 96.32 66 97 C63.525 97.495 63.525 97.495 61 98 C61 98.66 61 99.32 61 100 C60.34 100 59.68 100 59 100 C58.67 100.99 58.34 101.98 58 103 C57.01 103 56.02 103 55 103 C55 103.66 55 104.32 55 105 C49.58823529 109 49.58823529 109 47 109 C46.67 109.99 46.34 110.98 46 112 C45.34 112 44.68 112 44 112 C44 112.66 44 113.32 44 114 C42.68 114.33 41.36 114.66 40 115 C40 115.66 40 116.32 40 117 C35.52941176 121 35.52941176 121 33 121 C32.67 121.99 32.34 122.98 32 124 C31.34 124 30.68 124 30 124 C30 124.66 30 125.32 30 126 C26.53846154 129 26.53846154 129 24 129 C23.67 129.99 23.34 130.98 23 132 C22.34 132 21.68 132 21 132 C20.67 132.99 20.34 133.98 20 135 C19.34 135 18.68 135 18 135 C17.67 135.99 17.34 136.98 17 138 C16.34 138 15.68 138 15 138 C14.34 139.65 13.68 141.3 13 143 C14.093125 142.505 15.18625 142.01 16.3125 141.5 C20 140 20 140 23 140 C23 139.34 23 138.68 23 138 C24.98 137.67 26.96 137.34 29 137 C29 136.34 29 135.68 29 135 C30.98 134.67 32.96 134.34 35 134 C35 133.34 35 132.68 35 132 C36.98 131.67 38.96 131.34 41 131 C41 130.34 41 129.68 41 129 C42.65 128.67 44.3 128.34 46 128 C46 127.34 46 126.68 46 126 C48.97 125.505 48.97 125.505 52 125 C52 124.34 52 123.68 52 123 C54.475 122.505 54.475 122.505 57 122 C57 121.34 57 120.68 57 120 C57.99 120 58.98 120 60 120 C60.33 119.01 60.66 118.02 61 117 C61.99 117 62.98 117 64 117 C64 116.34 64 115.68 64 115 C66.475 114.505 66.475 114.505 69 114 C69.33 113.01 69.66 112.02 70 111 C74.33333333 108 74.33333333 108 77 108 C77 107.34 77 106.68 77 106 C77.66 106 78.32 106 79 106 C83.80209178 115.60418356 81.32878578 132.92111869 81.55224609 143.62841797 C81.73427492 152.15371289 81.99390299 160.60133699 82.79052734 169.09521484 C83.20237677 174.80638551 83.10288805 180.52732412 83.0625 186.25 C83.05798828 187.48363281 83.05347656 188.71726563 83.04882812 189.98828125 C83.03718487 192.99224069 83.02083376 195.99609266 83 199 C82.01 199.33 81.02 199.66 80 200 C80 199.34 80 198.68 80 198 C78.35 197.67 76.7 197.34 75 197 C75 196.34 75 195.68 75 195 C74.4225 194.87625 73.845 194.7525 73.25 194.625 C70.97664233 193.99351176 69.0746471 193.11141809 67 192 C67 191.34 67 190.68 67 190 C65.02 189.67 63.04 189.34 61 189 C61 188.34 61 187.68 61 187 C59.02 186.67 57.04 186.34 55 186 C55 185.34 55 184.68 55 184 C53.02 183.67 51.04 183.34 49 183 C49 182.34 49 181.68 49 181 C47.02 180.67 45.04 180.34 43 180 C43 179.34 43 178.68 43 178 C42.195625 177.9175 41.39125 177.835 40.5625 177.75 C36.79238221 176.95629099 33.79325172 175.6079486 30.32421875 173.98828125 C26.9501498 172.55359311 23.57749766 171.78054495 20 171 C20 170.34 20 169.68 20 169 C19.113125 168.9175 18.22625 168.835 17.3125 168.75 C12.40786739 168.0679652 7.78467469 166.45538185 3.0859375 164.9375 C0.3942826 164.11978206 -2.23351521 163.49364784 -5 163 C-5 162.34 -5 161.68 -5 161 C-9.62 160.67 -14.24 160.34 -19 160 C-18.01 160.61875 -17.02 161.2375 -16 161.875 C-15.01 162.57625 -14.02 163.2775 -13 164 C-13 164.66 -13 165.32 -13 166 C-11.35 166.33 -9.7 166.66 -8 167 C-8 167.66 -8 168.32 -8 169 C-7.38125 169.309375 -6.7625 169.61875 -6.125 169.9375 C-4.75 170.625 -3.375 171.3125 -2 172 C-2 172.66 -2 173.32 -2 174 C-1.29875 174.103125 -0.5975 174.20625 0.125 174.3125 C3.42045139 175.10054272 6.05850781 176.32869762 9 178 C9.33 178.66 9.66 179.32 10 180 C10.99 180.33 11.98 180.66 13 181 C13 181.66 13 182.32 13 183 C13.70125 183.103125 14.4025 183.20625 15.125 183.3125 C18.39137647 184.09359003 21.0471852 185.42058743 24 187 C24 187.66 24 188.32 24 189 C25.98 189.33 27.96 189.66 30 190 C30 190.66 30 191.32 30 192 C30.721875 192.12375 31.44375 192.2475 32.1875 192.375 C34.95721894 192.9904931 37.3970354 193.88444374 40 195 C40 195.66 40 196.32 40 197 C41.32 197 42.64 197 44 197 C44 198.32 44 199.64 44 201 C43.01 201 42.02 201 41 201 C41 201.66 41 202.32 41 203 C39.35 203.33 37.7 203.66 36 204 C36 204.66 36 205.32 36 206 C34.68 206.33 33.36 206.66 32 207 C32 207.66 32 208.32 32 209 C30.35 209.33 28.7 209.66 27 210 C27 210.66 27 211.32 27 212 C25.71086513 212.67154933 24.41859796 213.33708859 23.125 214 C22.40570313 214.37125 21.68640625 214.7425 20.9453125 215.125 C19 216 19 216 17 216 C17 216.66 17 217.32 17 218 C14.09451118 220.04169485 12.59857954 221 9 221 C9 221.66 9 222.32 9 223 C7.35 223.33 5.7 223.66 4 224 C4 224.66 4 225.32 4 226 C-2.75 230 -2.75 230 -5 230 C-5 230.66 -5 231.32 -5 232 C-6.26691507 232.67408308 -7.53870749 233.33900497 -8.8125 234 C-9.52019531 234.37125 -10.22789062 234.7425 -10.95703125 235.125 C-13 236 -13 236 -16 236 C-16.33 236.99 -16.66 237.98 -17 239 C-17.99 239 -18.98 239 -20 239 C-20 239.66 -20 240.32 -20 241 C-22.90548882 243.04169485 -24.40142046 244 -28 244 C-28 244.66 -28 245.32 -28 246 C-29.25 247.6875 -29.25 247.6875 -31 249 C-33.109375 248.58203125 -33.109375 248.58203125 -35 248 C-34.98428955 247.39043457 -34.9685791 246.78086914 -34.95239258 246.15283203 C-34.64292678 232.00619706 -35.11514455 218.08263612 -36.375 204 C-36.43821442 203.27556702 -36.50142883 202.55113403 -36.56655884 201.80474854 C-37.21551322 194.47487996 -37.9553493 187.22466472 -39.57080078 180.03393555 C-40.00835453 177.96040864 -40.27248331 175.91864738 -40.5 173.8125 C-40.99511645 170.03723707 -41.93831877 166.64952924 -43 163 C-43.165 161.824375 -43.33 160.64875 -43.5 159.4375 C-43.99348199 156.04481133 -44.84075497 153.22012508 -46 150 C-46.54487074 148.37607153 -47.08638306 146.7510134 -47.625 145.125 C-47.88539062 144.34382812 -48.14578125 143.56265625 -48.4140625 142.7578125 C-48.60742188 142.17773438 -48.80078125 141.59765625 -49 141 C-51.6230434 143.6230434 -50.80473586 150.59217132 -51.0625 154.125 C-51.15120361 155.33808838 -51.23990723 156.55117676 -51.33129883 157.80102539 C-52.31883797 172.31302203 -52.73558492 186.91622897 -51.22265625 201.40625 C-50.83412688 205.9322764 -50.91959322 210.46148404 -51 215 C-52.32 215 -53.64 215 -55 215 C-55 214.34 -55 213.68 -55 213 C-56.051875 212.8453125 -56.051875 212.8453125 -57.125 212.6875 C-60.39137647 211.90640997 -63.0471852 210.57941257 -66 209 C-66 208.34 -66 207.68 -66 207 C-67.98 206.67 -69.96 206.34 -72 206 C-72 205.34 -72 204.68 -72 204 C-73.051875 203.8453125 -73.051875 203.8453125 -74.125 203.6875 C-77.39137647 202.90640997 -80.0471852 201.57941257 -83 200 C-83 199.34 -83 198.68 -83 198 C-84.98 197.67 -86.96 197.34 -89 197 C-89 196.34 -89 195.68 -89 195 C-89.680625 194.9175 -90.36125 194.835 -91.0625 194.75 C-94.88363154 193.77439195 -97.62225925 192.03939064 -101 190 C-101.66 189.67 -102.32 189.34 -103 189 C-103 188.34 -103 187.68 -103 187 C-104.98 186.67 -106.96 186.34 -109 186 C-109 185.34 -109 184.68 -109 184 C-110.98 183.67 -112.96 183.34 -115 183 C-115 182.34 -115 181.68 -115 181 C-116.051875 180.8453125 -116.051875 180.8453125 -117.125 180.6875 C-120.39137647 179.90640997 -123.0471852 178.57941257 -126 177 C-126 176.34 -126 175.68 -126 175 C-126.78375 174.855625 -127.5675 174.71125 -128.375 174.5625 C-131 174 -131 174 -133 173 C-132.505 171.02 -132.505 171.02 -132 169 C-131.01 169 -130.02 169 -129 169 C-129 168.34 -129 167.68 -129 167 C-127.02 166.67 -125.04 166.34 -123 166 C-123 165.34 -123 164.68 -123 164 C-121.35 163.67 -119.7 163.34 -118 163 C-118 162.34 -118 161.68 -118 161 C-117.07767578 160.49339844 -117.07767578 160.49339844 -116.13671875 159.9765625 C-115.32847656 159.53054687 -114.52023438 159.08453125 -113.6875 158.625 C-112.48673828 157.96371094 -112.48673828 157.96371094 -111.26171875 157.2890625 C-109.46472057 156.26486665 -107.72099292 155.14732862 -106 154 C-105.01 154 -104.02 154 -103 154 C-103 153.34 -103 152.68 -103 152 C-101.68 151.67 -100.36 151.34 -99 151 C-99 150.34 -99 149.68 -99 149 C-97.68 148.67 -96.36 148.34 -95 148 C-95 147.34 -95 146.68 -95 146 C-94.01 146 -93.02 146 -92 146 C-91.67 145.01 -91.34 144.02 -91 143 C-89.35666496 141.96210419 -87.68756133 140.96432076 -86 140 C-84.97980427 139.0206121 -83.97850195 138.02104551 -83 137 C-79.33333333 134 -79.33333333 134 -77 134 C-77 133.34 -77 132.68 -77 132 C-72.52941176 128 -72.52941176 128 -70 128 C-70 127.34 -70 126.68 -70 126 C-69.360625 125.896875 -68.72125 125.79375 -68.0625 125.6875 C-67.381875 125.460625 -66.70125 125.23375 -66 125 C-65.505 123.515 -65.505 123.515 -65 122 C-64.34 122 -63.68 122 -63 122 C-62.62875 121.13375 -62.62875 121.13375 -62.25 120.25 C-60.81700012 117.67060021 -59.21575324 115.93878408 -57 114 C-56.34 114 -55.68 114 -55 114 C-54.505 112.515 -54.505 112.515 -54 111 C-53.34 111 -52.68 111 -52 111 C-51.505 109.515 -51.505 109.515 -51 108 C-50.34 108 -49.68 108 -49 108 C-48.505 106.02 -48.505 106.02 -48 104 C-48.99 104.66 -49.98 105.32 -51 106 C-53.6875 106.125 -53.6875 106.125 -56 106 C-56 106.66 -56 107.32 -56 108 C-57.98 108.33 -59.96 108.66 -62 109 C-62 109.66 -62 110.32 -62 111 C-63.98 111.33 -65.96 111.66 -68 112 C-68 112.66 -68 113.32 -68 114 C-70.97 114.495 -70.97 114.495 -74 115 C-74 115.66 -74 116.32 -74 117 C-76.475 117.495 -76.475 117.495 -79 118 C-79 118.66 -79 119.32 -79 120 C-81.97 120.495 -81.97 120.495 -85 121 C-85 121.66 -85 122.32 -85 123 C-87.63904371 124.41377341 -90.07120629 125.37240135 -93 126 C-93 126.66 -93 127.32 -93 128 C-94.32 128.33 -95.64 128.66 -97 129 C-97 129.66 -97 130.32 -97 131 C-98.65 131.33 -100.3 131.66 -102 132 C-102.33 132.99 -102.66 133.98 -103 135 C-103.99 135 -104.98 135 -106 135 C-106 135.66 -106 136.32 -106 137 C-106.639375 137.28875 -107.27875 137.5775 -107.9375 137.875 C-110.15206079 138.82823451 -110.15206079 138.82823451 -111 141 C-112.32 141 -113.64 141 -115 141 C-115 125.82 -115 110.64 -115 95 C-115.66 94.67 -116.32 94.34 -117 94 C-117.75980105 78.65444374 -118.13609886 63.36404914 -118 48 C-114.14974121 48.60355408 -111.13898841 49.76772603 -107.6875 51.5625 C-106.80449219 52.01753906 -105.92148438 52.47257812 -105.01171875 52.94140625 C-104.01591797 53.46541016 -104.01591797 53.46541016 -103 54 C-103 54.66 -103 55.32 -103 56 C-101.35 56.33 -99.7 56.66 -98 57 C-98 57.66 -98 58.32 -98 59 C-95.03 59.495 -95.03 59.495 -92 60 C-92 60.66 -92 61.32 -92 62 C-89.03 62.495 -89.03 62.495 -86 63 C-86 63.66 -86 64.32 -86 65 C-85.34 65.0825 -84.68 65.165 -84 65.25 C-81.35668059 65.91082985 -79.56096744 66.67820465 -77.1875 67.9375 C-73.19808663 70.02719272 -69.39586483 71.05802897 -65 72 C-65 72.66 -65 73.32 -65 74 C-64.16597656 74.11472656 -63.33195312 74.22945313 -62.47265625 74.34765625 C-58.66636977 75.06267295 -55.08985625 76.18097222 -51.4375 77.4375 C-50.46780273 77.76331055 -50.46780273 77.76331055 -49.47851562 78.09570312 C-46.70150269 79.03644098 -43.9586516 80.01680877 -41.2421875 81.12109375 C-38.52912818 82.18457519 -35.87829163 82.59837791 -33 83 C-33 83.66 -33 84.32 -33 85 C-31.93072266 85.07347656 -31.93072266 85.07347656 -30.83984375 85.1484375 C-25.29491509 85.58128523 -20.27913551 86.24028816 -15 88 C-15 87.34 -15 86.68 -15 86 C-15.763125 85.71125 -16.52625 85.4225 -17.3125 85.125 C-20 84 -20 84 -23 82 C-23 81.34 -23 80.68 -23 80 C-23.7425 79.9175 -24.485 79.835 -25.25 79.75 C-28.5397226 78.85280293 -29.70285105 77.45029221 -32 75 C-33.485 74.505 -33.485 74.505 -35 74 C-35 73.34 -35 72.68 -35 72 C-36.65 71.67 -38.3 71.34 -40 71 C-40 70.34 -40 69.68 -40 69 C-40.7425 68.71125 -41.485 68.4225 -42.25 68.125 C-44.56739797 67.17697356 -46.77917115 66.15154089 -49 65 C-49 64.34 -49 63.68 -49 63 C-49.67417969 62.91492188 -50.34835938 62.82984375 -51.04296875 62.7421875 C-54.81376724 61.79575195 -57.95227762 60.01594288 -61.3125 58.125 C-66.4419928 55.3056223 -71.41789683 52.82272756 -77 51 C-77 50.34 -77 49.68 -77 49 C-77.99 49 -78.98 49 -80 49 C-78.74838228 45.24514684 -77.54425403 44.83105872 -74.1875 42.875 C-72.87845703 42.09769531 -72.87845703 42.09769531 -71.54296875 41.3046875 C-69.31362373 40.1609068 -67.44546695 39.46743191 -65 39 C-65 38.34 -65 37.68 -65 37 C-63.35 36.67 -61.7 36.34 -60 36 C-60 35.34 -60 34.68 -60 34 C-58.35 33.67 -56.7 33.34 -55 33 C-55 32.34 -55 31.68 -55 31 C-54.01 31 -53.02 31 -52 31 C-52 30.34 -52 29.68 -52 29 C-45.25 25 -45.25 25 -43 25 C-43 24.34 -43 23.68 -43 23 C-41.73308493 22.32591692 -40.46129251 21.66099503 -39.1875 21 C-38.47980469 20.62875 -37.77210937 20.2575 -37.04296875 19.875 C-35 19 -35 19 -32 19 C-31.505 17.515 -31.505 17.515 -31 16 C-30.01 16 -29.02 16 -28 16 C-28 15.34 -28 14.68 -28 14 C-25.525 13.505 -25.525 13.505 -23 13 C-23 12.34 -23 11.68 -23 11 C-20.525 10.505 -20.525 10.505 -18 10 C-18 9.34 -18 8.68 -18 8 C-15.525 7.505 -15.525 7.505 -13 7 C-13 6.34 -13 5.68 -13 5 C-10.91796875 3.45703125 -10.91796875 3.45703125 -8.1875 1.8125 C-7.29417969 1.26207031 -6.40085937 0.71164063 -5.48046875 0.14453125 C-3 -1 -3 -1 0 0 Z M-14 89 C-14 89.99 -14 90.98 -14 92 C-15.65 92 -17.3 92 -19 92 C-19 92.66 -19 93.32 -19 94 C-23.455 94.495 -23.455 94.495 -28 95 C-28 95.66 -28 96.32 -28 97 C-32.455 97.495 -32.455 97.495 -37 98 C-37 98.66 -37 99.32 -37 100 C-37.94875 100.12375 -38.8975 100.2475 -39.875 100.375 C-43.08667191 100.71687177 -43.08667191 100.71687177 -45 103 C-44.70532536 104.3424067 -44.36835475 105.67591402 -44 107 C-44.41087021 108.78043756 -44.83503794 110.55869936 -45.3203125 112.3203125 C-46.22717719 115.89565258 -46.93305304 119.50342559 -47.625 123.125 C-47.7600293 123.80594727 -47.89505859 124.48689453 -48.03417969 125.18847656 C-48.78994975 129.18104078 -49.13915035 132.93933986 -49 137 C-47.68 137 -46.36 137 -45 137 C-44.67 137.66 -44.34 138.32 -44 139 C-40.96442837 142.87878597 -38.06450583 146.14386076 -34 149 C-33.34 149 -32.68 149 -32 149 C-32 149.66 -32 150.32 -32 151 C-31.360625 151.103125 -30.72125 151.20625 -30.0625 151.3125 C-29.381875 151.539375 -28.70125 151.76625 -28 152 C-27.67 152.99 -27.34 153.98 -27 155 C-26.34 155 -25.68 155 -25 155 C-25 155.66 -25 156.32 -25 157 C-23.16299211 157.77242269 -23.16299211 157.77242269 -21 158 C-20.42765625 157.33484375 -20.42765625 157.33484375 -19.84375 156.65625 C-17.09164921 154.18402387 -13.82329733 153.65496024 -10.3125 152.8125 C-9.61060547 152.63525391 -8.90871094 152.45800781 -8.18554688 152.27539062 C-6.4593584 151.84090781 -4.7299653 151.41919208 -3 151 C-3 150.34 -3 149.68 -3 149 C-1.453125 148.8453125 -1.453125 148.8453125 0.125 148.6875 C3.95083945 148.00872203 6.63370025 146.88841205 10 145 C9.97164062 143.98035156 9.94328125 142.96070313 9.9140625 141.91015625 C9.99609365 138.17773885 10.51166857 135.05750851 11.375 131.4375 C12.9875669 124.32233516 14.06547541 117.23431973 15 110 C13.02 109.67 11.04 109.34 9 109 C8.505 107.515 8.505 107.515 8 106 C7.34 106 6.68 106 6 106 C5.505 104.515 5.505 104.515 5 103 C4.34 103 3.68 103 3 103 C3 102.34 3 101.68 3 101 C1.34997172 99.64613064 -0.3174387 98.31321858 -2 97 C-2.495 96.01 -2.495 96.01 -3 95 C-5.52733235 94.34444881 -5.52733235 94.34444881 -8 94 C-8.495 92.515 -8.495 92.515 -9 91 C-9.66 91 -10.32 91 -11 91 C-11 90.34 -11 89.68 -11 89 C-11.99 89 -12.98 89 -14 89 Z " fill="#EF443A" transform="translate(153,5)"/>
<path d="M0 0 C0.66 0 1.32 0 2 0 C6.80209178 9.60418356 4.32878578 26.92111869 4.55224609 37.62841797 C4.73427492 46.15371289 4.99390299 54.60133699 5.79052734 63.09521484 C6.20237677 68.80638551 6.10288805 74.52732412 6.0625 80.25 C6.05798828 81.48363281 6.05347656 82.71726562 6.04882812 83.98828125 C6.03718487 86.99224069 6.02083376 89.99609266 6 93 C4.515 93.495 4.515 93.495 3 94 C3 93.34 3 92.68 3 92 C1.35 91.67 -0.3 91.34 -2 91 C-2 90.34 -2 89.68 -2 89 C-2.86625 88.814375 -2.86625 88.814375 -3.75 88.625 C-6.02335767 87.99351176 -7.9253529 87.11141809 -10 86 C-10 85.34 -10 84.68 -10 84 C-11.98 83.67 -13.96 83.34 -16 83 C-16 82.34 -16 81.68 -16 81 C-17.98 80.67 -19.96 80.34 -22 80 C-22 79.34 -22 78.68 -22 78 C-23.98 77.67 -25.96 77.34 -28 77 C-28 76.34 -28 75.68 -28 75 C-29.98 74.67 -31.96 74.34 -34 74 C-34 73.34 -34 72.68 -34 72 C-34.804375 71.9175 -35.60875 71.835 -36.4375 71.75 C-40.20761779 70.95629099 -43.20674828 69.6079486 -46.67578125 67.98828125 C-50.0498502 66.55359311 -53.42250234 65.78054495 -57 65 C-57 64.34 -57 63.68 -57 63 C-57.886875 62.9175 -58.77375 62.835 -59.6875 62.75 C-64.59213261 62.0679652 -69.21532531 60.45538185 -73.9140625 58.9375 C-76.6057174 58.11978206 -79.23351521 57.49364784 -82 57 C-82 56.34 -82 55.68 -82 55 C-82.90363281 54.95101562 -83.80726563 54.90203125 -84.73828125 54.8515625 C-85.91777344 54.77679688 -87.09726563 54.70203125 -88.3125 54.625 C-89.48425781 54.55539063 -90.65601563 54.48578125 -91.86328125 54.4140625 C-95 54 -95 54 -98 52 C-97.67 51.01 -97.34 50.02 -97 49 C-94.453125 47.83203125 -94.453125 47.83203125 -91.25 46.8125 C-90.20328125 46.46832031 -89.1565625 46.12414062 -88.078125 45.76953125 C-85.22909507 45.05727377 -82.91669884 44.84336247 -80 45 C-80 44.34 -80 43.68 -80 43 C-79.21753906 42.72285156 -78.43507812 42.44570312 -77.62890625 42.16015625 C-76.11103516 41.61681641 -76.11103516 41.61681641 -74.5625 41.0625 C-73.55316406 40.70285156 -72.54382813 40.34320313 -71.50390625 39.97265625 C-69.09686255 39.23122361 -69.09686255 39.23122361 -68 38 C-67.83549975 36.62916461 -67.72046101 35.25236604 -67.625 33.875 C-66.99839957 26.80776887 -65.46921276 19.93024888 -64 13 C-63.67 13 -63.34 13 -63 13 C-62.71875 28.53125 -62.71875 28.53125 -66 34 C-65.34 33.67 -64.68 33.34 -64 33 C-63.67 32.01 -63.34 31.02 -63 30 C-62.34 30 -61.68 30 -61 30 C-60.505 28.515 -60.505 28.515 -60 27 C-57.9375 26.3125 -57.9375 26.3125 -56 26 C-56.495 27.485 -56.495 27.485 -57 29 C-57.66 29 -58.32 29 -59 29 C-59.495 30.485 -59.495 30.485 -60 32 C-60.66 32 -61.32 32 -62 32 C-62.66 33.65 -63.32 35.3 -64 37 C-62.906875 36.505 -61.81375 36.01 -60.6875 35.5 C-57 34 -57 34 -54 34 C-54 33.34 -54 32.68 -54 32 C-52.02 31.67 -50.04 31.34 -48 31 C-48 30.34 -48 29.68 -48 29 C-46.02 28.67 -44.04 28.34 -42 28 C-42 27.34 -42 26.68 -42 26 C-40.02 25.67 -38.04 25.34 -36 25 C-36 24.34 -36 23.68 -36 23 C-34.35 22.67 -32.7 22.34 -31 22 C-31 21.34 -31 20.68 -31 20 C-29.02 19.67 -27.04 19.34 -25 19 C-25 18.34 -25 17.68 -25 17 C-23.35 16.67 -21.7 16.34 -20 16 C-20 15.34 -20 14.68 -20 14 C-19.01 14 -18.02 14 -17 14 C-16.67 13.01 -16.34 12.02 -16 11 C-15.01 11 -14.02 11 -13 11 C-13 10.34 -13 9.68 -13 9 C-10.525 8.505 -10.525 8.505 -8 8 C-7.67 7.01 -7.34 6.02 -7 5 C-2.66666667 2 -2.66666667 2 0 2 C0 1.34 0 0.68 0 0 Z " fill="#EF4238" transform="translate(230,111)"/>
<path d="M0 0 C2.64 0.99 5.28 1.98 8 3 C8 3.66 8 4.32 8 5 C9.32 5.33 10.64 5.66 12 6 C12 6.66 12 7.32 12 8 C12.8971875 8.1546875 12.8971875 8.1546875 13.8125 8.3125 C16.31258286 9.09824033 17.37535082 9.96918853 19 12 C19 12.66 19 13.32 19 14 C19.556875 14.0825 20.11375 14.165 20.6875 14.25 C23.71045973 15.23041937 25.58748494 16.95864111 28 19 C28.99 19.66 29.98 20.32 31 21 C31 21.66 31 22.32 31 23 C32.65 23.33 34.3 23.66 36 24 C36 24.66 36 25.32 36 26 C36.928125 26.4640625 36.928125 26.4640625 37.875 26.9375 C39.25 27.625 40.625 28.3125 42 29 C42 29.66 42 30.32 42 31 C42.70125 31.103125 43.4025 31.20625 44.125 31.3125 C47.42045139 32.10054272 50.05850781 33.32869762 53 35 C53.33 35.66 53.66 36.32 54 37 C54.99 37.33 55.98 37.66 57 38 C57 38.66 57 39.32 57 40 C57.70125 40.103125 58.4025 40.20625 59.125 40.3125 C62.39137647 41.09359003 65.0471852 42.42058743 68 44 C68 44.66 68 45.32 68 46 C69.98 46.33 71.96 46.66 74 47 C74 47.66 74 48.32 74 49 C75.0828125 49.185625 75.0828125 49.185625 76.1875 49.375 C78.95721894 49.9904931 81.3970354 50.88444374 84 52 C84 52.66 84 53.32 84 54 C85.32 54 86.64 54 88 54 C88 55.32 88 56.64 88 58 C87.01 58 86.02 58 85 58 C85 58.66 85 59.32 85 60 C83.35 60.33 81.7 60.66 80 61 C80 61.66 80 62.32 80 63 C78.68 63.33 77.36 63.66 76 64 C76 64.66 76 65.32 76 66 C74.35 66.33 72.7 66.66 71 67 C71 67.66 71 68.32 71 69 C69.71086513 69.67154933 68.41859796 70.33708859 67.125 71 C66.40570313 71.37125 65.68640625 71.7425 64.9453125 72.125 C63 73 63 73 61 73 C61 73.66 61 74.32 61 75 C58.09451118 77.04169485 56.59857954 78 53 78 C53 78.66 53 79.32 53 80 C50.525 80.495 50.525 80.495 48 81 C48 81.66 48 82.32 48 83 C41.25 87 41.25 87 39 87 C39 87.66 39 88.32 39 89 C37.73308493 89.67408308 36.46129251 90.33900497 35.1875 91 C34.47980469 91.37125 33.77210938 91.7425 33.04296875 92.125 C31 93 31 93 28 93 C27.67 93.99 27.34 94.98 27 96 C26.01 96 25.02 96 24 96 C24 96.66 24 97.32 24 98 C21.09451118 100.04169485 19.59857954 101 16 101 C16 101.66 16 102.32 16 103 C14.75 104.6875 14.75 104.6875 13 106 C10.890625 105.58203125 10.890625 105.58203125 9 105 C9.01571045 104.39043457 9.0314209 103.78086914 9.04760742 103.15283203 C9.35707322 89.00619706 8.88485545 75.08263612 7.625 61 C7.56178558 60.27556702 7.49857117 59.55113403 7.43344116 58.80474854 C6.78448678 51.47487996 6.0446507 44.22466472 4.42919922 37.03393555 C3.99164547 34.96040864 3.72751669 32.91864738 3.5 30.8125 C3.11712446 27.07323234 3.11712446 27.07323234 2.04296875 23.87890625 C0.71413931 19.36148745 0.27337719 14.79808038 -0.1875 10.125 C-0.28224609 9.25875 -0.37699219 8.3925 -0.47460938 7.5 C-0.96141243 2.75831532 -0.96141243 2.75831532 -1 1 C-0.67 0.67 -0.34 0.34 0 0 Z " fill="#4E4E51" transform="translate(109,148)"/>
<path d="M0 0 C3.85025879 0.60355408 6.86101159 1.76772603 10.3125 3.5625 C11.19550781 4.01753906 12.07851563 4.47257812 12.98828125 4.94140625 C13.65214844 5.29074219 14.31601562 5.64007813 15 6 C15 6.66 15 7.32 15 8 C17.475 8.495 17.475 8.495 20 9 C20 9.66 20 10.32 20 11 C22.97 11.495 22.97 11.495 26 12 C26 12.66 26 13.32 26 14 C28.97 14.495 28.97 14.495 32 15 C32 15.66 32 16.32 32 17 C32.66 17.0825 33.32 17.165 34 17.25 C36.64331941 17.91082985 38.43903256 18.67820465 40.8125 19.9375 C44.80191337 22.02719272 48.60413517 23.05802897 53 24 C53 24.66 53 25.32 53 26 C53.83402344 26.11472656 54.66804688 26.22945312 55.52734375 26.34765625 C59.33363023 27.06267295 62.91014375 28.18097222 66.5625 29.4375 C67.53219727 29.76331055 67.53219727 29.76331055 68.52148438 30.09570312 C71.29849731 31.03644098 74.0413484 32.01680877 76.7578125 33.12109375 C79.47087182 34.18457519 82.12170837 34.59837791 85 35 C85 35.66 85 36.32 85 37 C85.94875 36.938125 86.8975 36.87625 87.875 36.8125 C88.90625 36.874375 89.9375 36.93625 91 37 C91.66 37.99 92.32 38.98 93 40 C96.55672179 41.2188121 96.55672179 41.2188121 100 42 C99.67 43.32 99.34 44.64 99 46 C94.545 46.495 94.545 46.495 90 47 C90 47.66 90 48.32 90 49 C85.545 49.495 85.545 49.495 81 50 C81 50.66 81 51.32 81 52 C79.43883181 52.33951619 77.87598662 52.67132544 76.3125 53 C75.44238281 53.185625 74.57226562 53.37125 73.67578125 53.5625 C71.06287036 53.98972047 68.64186962 54.07616201 66 54 C66 54.66 66 55.32 66 56 C64.02 56.33 62.04 56.66 60 57 C60 57.66 60 58.32 60 59 C56.535 59.495 56.535 59.495 53 60 C53 60.66 53 61.32 53 62 C47.25 65 47.25 65 45 65 C44.505 66.98 44.505 66.98 44 69 C41.525 69.495 41.525 69.495 39 70 C39 70.66 39 71.32 39 72 C36.03 72.495 36.03 72.495 33 73 C33 73.66 33 74.32 33 75 C30.36095629 76.41377341 27.92879371 77.37240135 25 78 C25 78.66 25 79.32 25 80 C23.02 80.495 23.02 80.495 21 81 C21 81.66 21 82.32 21 83 C18.525 83.495 18.525 83.495 16 84 C15.67 84.99 15.34 85.98 15 87 C14.01 87 13.02 87 12 87 C12 87.66 12 88.32 12 89 C11.360625 89.28875 10.72125 89.5775 10.0625 89.875 C7.84793921 90.82823451 7.84793921 90.82823451 7 93 C5.68 93 4.36 93 3 93 C3 77.82 3 62.64 3 47 C2.34 46.67 1.68 46.34 1 46 C0.24019895 30.65444374 -0.13609886 15.36404914 0 0 Z " fill="#4C4C4F" transform="translate(35,53)"/>
<path d="M0 0 C0.99 0 1.98 0 3 0 C3.33 0.66 3.66 1.32 4 2 C4.99 2.33 5.98 2.66 7 3 C7 3.66 7 4.32 7 5 C9.97 5.495 9.97 5.495 13 6 C13 6.66 13 7.32 13 8 C14.051875 8.1546875 14.051875 8.1546875 15.125 8.3125 C18.39137647 9.09359003 21.0471852 10.42058743 24 12 C24 12.66 24 13.32 24 14 C26.97 14.495 26.97 14.495 30 15 C30 15.66 30 16.32 30 17 C30.82757813 17.16822266 30.82757813 17.16822266 31.671875 17.33984375 C34.40065211 18.11360773 36.72772943 19.26817694 39.25 20.5625 C40.14203125 21.01753906 41.0340625 21.47257812 41.953125 21.94140625 C42.62859375 22.29074219 43.3040625 22.64007813 44 23 C44 23.66 44 24.32 44 25 C45.98 25.33 47.96 25.66 50 26 C50 26.66 50 27.32 50 28 C51.98 28.33 53.96 28.66 56 29 C56 29.66 56 30.32 56 31 C56.70125 31.103125 57.4025 31.20625 58.125 31.3125 C61.39137647 32.09359003 64.0471852 33.42058743 67 35 C67 35.66 67 36.32 67 37 C67.72574219 37.11214844 68.45148438 37.22429687 69.19921875 37.33984375 C72.12563993 38.02961387 74.22287809 39.05510814 76.8125 40.5625 C77.60269531 41.01753906 78.39289063 41.47257812 79.20703125 41.94140625 C79.79871094 42.29074219 80.39039063 42.64007813 81 43 C81 44.32 81 45.64 81 47 C78.09399739 48.25664978 76.20395416 49 73 49 C73 49.66 73 50.32 73 51 C70.48046875 52.7265625 70.48046875 52.7265625 67.1875 54.625 C66.10855469 55.25664063 65.02960938 55.88828125 63.91796875 56.5390625 C61 58 61 58 58 58 C58 58.66 58 59.32 58 60 C55.525 60.495 55.525 60.495 53 61 C52.67 61.99 52.34 62.98 52 64 C51.01 64 50.02 64 49 64 C49 64.66 49 65.32 49 66 C46.525 66.495 46.525 66.495 44 67 C44 67.66 44 68.32 44 69 C43.34 69 42.68 69 42 69 C41.505 70.485 41.505 70.485 41 72 C40.01 72 39.02 72 38 72 C38 72.66 38 73.32 38 74 C32.58823529 78 32.58823529 78 30 78 C29.505 79.485 29.505 79.485 29 81 C28.34 81 27.68 81 27 81 C27 81.66 27 82.32 27 83 C25.02 83.495 25.02 83.495 23 84 C23 84.66 23 85.32 23 86 C18.52941176 90 18.52941176 90 16 90 C15.67 90.99 15.34 91.98 15 93 C14.34 93 13.68 93 13 93 C13 93.66 13 94.32 13 95 C9.53846154 98 9.53846154 98 7 98 C6.67 98.99 6.34 99.98 6 101 C4.01276732 101.70381157 2.01222047 102.3711811 0 103 C-0.495 103.99 -0.495 103.99 -1 105 C-1.66 105 -2.32 105 -3 105 C-3.33 106.32 -3.66 107.64 -4 109 C-4.66 109 -5.32 109 -6 109 C-5.52759949 105.51987918 -5.0459514 102.04110146 -4.5625 98.5625 C-4.36043945 97.07266602 -4.36043945 97.07266602 -4.15429688 95.55273438 C-3.95610352 94.13637695 -3.95610352 94.13637695 -3.75390625 92.69140625 C-3.63345947 91.81685791 -3.5130127 90.94230957 -3.38891602 90.04125977 C-3 88 -3 88 -2 87 C-1.63239269 84.67182036 -1.29758419 82.3381615 -1 80 C-0.34 80 0.32 80 1 80 C1.80567979 58.5680007 1.80567979 58.5680007 2.125 37.125 C2.12951172 36.3009668 2.13402344 35.47693359 2.13867188 34.62792969 C2.46371925 31.01618853 2.46371925 31.01618853 1 28 C-0.32905053 18.69664632 -0.09190589 9.37440044 0 0 Z " fill="#4E4E51" transform="translate(170,36)"/>
<path d="M0 0 C0.99 0.33 1.98 0.66 3 1 C3.02505615 1.98170166 3.0501123 2.96340332 3.07592773 3.97485352 C3.17165266 7.69319982 3.27143715 11.41142889 3.37231445 15.12963867 C3.41505117 16.72466244 3.45675454 18.31971431 3.49731445 19.91479492 C2.74213734 36.9442114 2.74213734 36.9442114 6 53 C6.96775375 59.32026832 7.10291192 65.61946116 7 72 C7.66 72 8.32 72 9 72 C9.33 76.62 9.66 81.24 10 86 C10.66 86 11.32 86 12 86 C12.10957031 86.68964844 12.21914062 87.37929687 12.33203125 88.08984375 C13.37883269 94.29405716 14.81465677 100.09957328 17 106 C19.38039238 101.26886425 19.43383509 96.72810187 19.6328125 91.54296875 C19.67437469 90.64000565 19.71593689 89.73704254 19.75875854 88.80671692 C19.8890955 85.93394193 20.00721167 83.06081414 20.125 80.1875 C20.21143291 78.23499017 20.29866348 76.28251547 20.38671875 74.33007812 C20.60039015 69.55374317 20.80310595 64.77705478 21 60 C21.66 60.33 22.32 60.66 23 61 C23.10322897 71.57523482 23.03918125 82.12091492 22.5625 92.6875 C22.52326416 93.58227051 22.48402832 94.47704102 22.44360352 95.39892578 C22.17253957 100.9669227 21.667293 106.46539337 21 112 C20.34 112 19.68 112 19 112 C19 114.31 19 116.62 19 119 C18.01 119.495 18.01 119.495 17 120 C17.33 117.03 17.66 114.06 18 111 C16.02 111.495 16.02 111.495 14 112 C14 111.34 14 110.68 14 110 C13.34 110 12.68 110 12 110 C10.64613064 108.34997172 9.31321858 106.6825613 8 105 C7.34 104.67 6.68 104.34 6 104 C6 103.34 6 102.68 6 102 C7.98 102.66 9.96 103.32 12 104 C11.19360643 100.01957023 10.3788693 96.04089475 9.5625 92.0625 C9.33240234 90.92619141 9.10230469 89.78988281 8.86523438 88.61914062 C8.64287109 87.53955078 8.42050781 86.45996094 8.19140625 85.34765625 C7.98717041 84.34742432 7.78293457 83.34719238 7.57250977 82.31665039 C7.22468578 80.05241475 7.22468578 80.05241475 6 79 C5.78678272 77.67331468 5.63002537 76.33740381 5.5 75 C5.4175 74.195625 5.335 73.39125 5.25 72.5625 C5 70 5 70 4.75 67.4375 C4.6675 66.633125 4.585 65.82875 4.5 65 C4.4278125 64.2575 4.355625 63.515 4.28125 62.75 C4.1714852 60.97616999 4.1714852 60.97616999 3 60 C-1.56465203 41.95535995 -0.11647433 22.46566127 0 4 C-1.98 4.33 -3.96 4.66 -6 5 C-2.25 1.125 -2.25 1.125 0 0 Z " fill="#AE9595" transform="translate(150,4)"/>
<path d="M0 0 C0 3.62660737 -0.68900226 7.01804207 -1.375 10.5625 C-1.51147949 11.27905762 -1.64795898 11.99561523 -1.78857422 12.73388672 C-2.69480955 17.47427669 -3.63495897 22.20746425 -4.59375 26.9375 C-5.1212931 29.61579572 -5.57428428 32.30380046 -6 35 C-4.02 35.33 -2.04 35.66 0 36 C0.103125 36.639375 0.20625 37.27875 0.3125 37.9375 C0.539375 38.618125 0.76625 39.29875 1 40 C1.99 40.33 2.98 40.66 4 41 C4 41.66 4 42.32 4 43 C2.35 42.67 0.7 42.34 -1 42 C-0.67 45.96 -0.34 49.92 0 54 C-2 53 -2 53 -2.81640625 50.6015625 C-3.18572266 49.12816406 -3.18572266 49.12816406 -3.5625 47.625 C-4.3054379 44.70714028 -5.04749464 41.85751609 -6 39 C-8.05922402 41.05922402 -7.41427579 45.21708124 -7.5625 48.0625 C-7.60568359 48.82111328 -7.64886719 49.57972656 -7.69335938 50.36132812 C-7.79973633 52.24065438 -7.90039934 54.12030244 -8 56 C-8.66 56 -9.32 56 -10 56 C-10.11039334 47.59784035 -9.95458649 39.35263176 -9 31 C-8.34 31 -7.68 31 -7 31 C-7.01160156 30.43152344 -7.02320312 29.86304688 -7.03515625 29.27734375 C-7.11872421 22.12631433 -6.47762937 15.77218694 -4 9 C-4.94875 9.495 -5.8975 9.99 -6.875 10.5 C-10 12 -10 12 -12 12 C-11.67 11.01 -11.34 10.02 -11 9 C-10.34 9 -9.68 9 -9 9 C-8.67 8.01 -8.34 7.02 -8 6 C-7.34 6 -6.68 6 -6 6 C-5.67 4.68 -5.34 3.36 -5 2 C-5.99 2.66 -6.98 3.32 -8 4 C-10.6875 4.125 -10.6875 4.125 -13 4 C-13 4.66 -13 5.32 -13 6 C-14.98 6.33 -16.96 6.66 -19 7 C-19 7.66 -19 8.32 -19 9 C-20.98 9.33 -22.96 9.66 -25 10 C-25 10.66 -25 11.32 -25 12 C-26.65 12.33 -28.3 12.66 -30 13 C-30 12.34 -30 11.68 -30 11 C-27.09451118 8.95830515 -25.59857954 8 -22 8 C-22 7.34 -22 6.68 -22 6 C-18.535 5.505 -18.535 5.505 -15 5 C-15 4.34 -15 3.68 -15 3 C-13.02 2.67 -11.04 2.34 -9 2 C-9 1.34 -9 0.68 -9 0 C-5.62182575 -0.84454356 -3.32534757 -1.10844919 0 0 Z " fill="#F6B3AE" transform="translate(110,107)"/>
<path d="M0 0 C0.66 0 1.32 0 2 0 C6.80209178 9.60418356 4.32878578 26.92111869 4.55224609 37.62841797 C4.73728344 46.29461651 4.98063936 54.89741564 5.79052734 63.53271484 C6.06698166 66.78894711 6.09801627 69.98250289 6.0625 73.25 C6.05347656 74.34828125 6.04445312 75.4465625 6.03515625 76.578125 C6.02355469 77.37734375 6.01195312 78.1765625 6 79 C5.34 79 4.68 79 4 79 C3.17389925 76.0739478 2.83399283 73.37508231 2.71875 70.33984375 C2.68136719 69.46392578 2.64398438 68.58800781 2.60546875 67.68554688 C2.53500655 65.84961511 2.46469468 64.01367758 2.39453125 62.17773438 C2.35714844 61.30310547 2.31976563 60.42847656 2.28125 59.52734375 C2.25095703 58.73062256 2.22066406 57.93390137 2.18945312 57.11303711 C2.06474784 54.81050013 2.06474784 54.81050013 1 52 C0.88551523 50.42038841 0.82377068 48.83666148 0.79467773 47.25317383 C0.77473251 46.29240433 0.75478729 45.33163483 0.73423767 44.3417511 C0.71752518 43.30729355 0.70081268 42.272836 0.68359375 41.20703125 C0.66281265 40.14586594 0.64203156 39.08470062 0.62062073 37.99137878 C0.55518762 34.59848563 0.49626907 31.2055145 0.4375 27.8125 C0.39430886 25.51366378 0.35069438 23.21483547 0.30664062 20.91601562 C0.1995126 15.2774264 0.09773449 9.63875944 0 4 C-1.423125 4.99 -1.423125 4.99 -2.875 6 C-6 8 -6 8 -8 8 C-6.74874616 4.24623848 -5.4347596 3.75926711 -2 2 C-1.34 2 -0.68 2 0 2 C0 1.34 0 0.68 0 0 Z " fill="#F26B63" transform="translate(230,111)"/>
<path d="M0 0 C0.99 0.33 1.98 0.66 3 1 C3.66 20.8 4.32 40.6 5 61 C4.34 60.67 3.68 60.34 3 60 C-2.27686114 42.54842004 -0.11389998 22.05752738 0 4 C-1.98 4.33 -3.96 4.66 -6 5 C-2.25 1.125 -2.25 1.125 0 0 Z " fill="#F6938D" transform="translate(150,4)"/>
<path d="M0 0 C0.66 0 1.32 0 2 0 C4.10068337 6.2141554 4.59301885 12.29283567 5.0625 18.8125 C5.2163928 20.88178581 5.37376716 22.95081659 5.53515625 25.01953125 C5.600979 25.92807861 5.66680176 26.83662598 5.73461914 27.77270508 C5.87690547 30.03568643 5.87690547 30.03568643 7 32 C7.15720097 34.9148537 7.25855654 37.80939636 7.31640625 40.7265625 C7.33718735 41.58937836 7.35796844 42.45219421 7.37937927 43.34115601 C7.44486034 46.10235493 7.50375298 48.86365038 7.5625 51.625 C7.6056866 53.49480172 7.64930093 55.36459362 7.69335938 57.234375 C7.80054024 61.82281728 7.90181175 66.41135683 8 71 C8.66 71 9.32 71 10 71 C10 70.34 10 69.68 10 69 C16.625 65 16.625 65 20 65 C20 65.66 20 66.32 20 67 C17.09451118 69.04169485 15.59857954 70 12 70 C12 70.66 12 71.32 12 72 C10.75 73.6875 10.75 73.6875 9 75 C6.890625 74.58203125 6.890625 74.58203125 5 74 C5.01571045 73.39043457 5.0314209 72.78086914 5.04760742 72.15283203 C5.35707322 58.00619706 4.88485545 44.08263612 3.625 30 C3.56178558 29.27556702 3.49857117 28.55113403 3.43344116 27.80474854 C2.7834036 20.46264555 2.04816907 13.2086915 0.38037109 6.015625 C0 4 0 4 0 0 Z " fill="#9B9B9C" transform="translate(113,179)"/>
<path d="M0 0 C0.33 0 0.66 0 1 0 C0.99476318 0.93682617 0.98952637 1.87365234 0.98413086 2.83886719 C0.96691138 6.37256507 0.95446456 9.90621725 0.94506836 13.43994141 C0.94009315 14.95850333 0.93331059 16.4770606 0.92456055 17.99560547 C0.8783813 26.22637719 0.98343466 34.33575471 1.77514648 42.53808594 C2.0410531 45.44948909 2.10095381 48.32751024 2.0625 51.25 C2.05347656 52.16265625 2.04445313 53.0753125 2.03515625 54.015625 C2.02355469 54.67046875 2.01195313 55.3253125 2 56 C0.68 56 -0.64 56 -2 56 C-2 55.34 -2 54.68 -2 54 C-3.2065625 53.814375 -3.2065625 53.814375 -4.4375 53.625 C-5.283125 53.41875 -6.12875 53.2125 -7 53 C-7.33 52.34 -7.66 51.68 -8 51 C-6.02 51.33 -4.04 51.66 -2 52 C-1.80426392 50.56359829 -1.61872184 49.12580496 -1.4375 47.6875 C-1.33308594 46.88699219 -1.22867188 46.08648437 -1.12109375 45.26171875 C-0.85244822 42.83182884 -0.85244822 42.83182884 -2 40 C-2.10856264 37.48408354 -2.16402157 34.99671693 -2.16796875 32.48046875 C-2.17129715 31.74427811 -2.17462555 31.00808746 -2.17805481 30.24958801 C-2.18311472 28.69203312 -2.18546342 27.1344674 -2.18530273 25.5769043 C-2.18748236 23.20668398 -2.20562855 20.83693445 -2.22460938 18.46679688 C-2.22754496 16.95052242 -2.22952865 15.43424576 -2.23046875 13.91796875 C-2.24124702 12.86297432 -2.24124702 12.86297432 -2.25224304 11.78666687 C-2.2324961 7.48270708 -1.57463853 4.00232004 0 0 Z " fill="#F58881" transform="translate(100,164)"/>
<path d="M0 0 C0.33 0 0.66 0 1 0 C2.7081513 13.45433938 3.25664739 26.63402835 3.125 40.1875 C3.11492936 42.02798981 3.10581088 43.86848508 3.09765625 45.70898438 C3.07601373 50.1394625 3.0417199 54.56966735 3 59 C2.34 59 1.68 59 1 59 C1 45.8 1 32.6 1 19 C0.34 18.67 -0.32 18.34 -1 18 C-1.02684312 15.18743719 -1.04676188 12.37512759 -1.0625 9.5625 C-1.07087891 8.76005859 -1.07925781 7.95761719 -1.08789062 7.13085938 C-1.0965143 5.08704779 -1.0522815 3.04316098 -1 1 C-0.67 0.67 -0.34 0.34 0 0 Z " fill="#A7A7A8" transform="translate(37,81)"/>
<path d="M0 0 C0.33 0 0.66 0 1 0 C1.28125 15.53125 1.28125 15.53125 -2 21 C-1.34 20.67 -0.68 20.34 0 20 C0.33 19.01 0.66 18.02 1 17 C1.66 17 2.32 17 3 17 C3.33 16.01 3.66 15.02 4 14 C6.0625 13.3125 6.0625 13.3125 8 13 C7.67 13.99 7.34 14.98 7 16 C6.34 16 5.68 16 5 16 C4.67 16.99 4.34 17.98 4 19 C3.34 19 2.68 19 2 19 C1.01 21.475 1.01 21.475 0 24 C1.093125 23.505 2.18625 23.01 3.3125 22.5 C7 21 7 21 10 21 C10 20.34 10 19.68 10 19 C10.66 19 11.32 19 12 19 C12 19.99 12 20.98 12 22 C11.01 22 10.02 22 9 22 C9 22.66 9 23.32 9 24 C7.02 24.33 5.04 24.66 3 25 C3 25.66 3 26.32 3 27 C-5.03571429 29.27678571 -5.03571429 29.27678571 -9 28 C-8.195625 27.71125 -7.39125 27.4225 -6.5625 27.125 C-3.87747657 25.33236762 -3.87747657 25.33236762 -3.55078125 23.1015625 C-3.42670022 21.441634 -3.32749545 19.77975554 -3.24609375 18.1171875 C-2.94402873 14.29103062 -2.21984121 10.62775135 -1.4375 6.875 C-1.22843018 5.86131348 -1.22843018 5.86131348 -1.01513672 4.82714844 C-0.6808118 3.21725175 -0.34100111 1.6084958 0 0 Z " fill="#F69B95" transform="translate(166,124)"/>
<path d="M0 0 C-1.423125 0.61875 -1.423125 0.61875 -2.875 1.25 C-6.00716624 3.0040131 -6.86500606 3.70851757 -8 7 C-6.4221875 6.9690625 -6.4221875 6.9690625 -4.8125 6.9375 C-1.67295096 6.98896802 0.96883396 7.26517187 4 8 C4 8.66 4 9.32 4 10 C4.68707031 10.04898438 5.37414062 10.09796875 6.08203125 10.1484375 C6.98308594 10.22320312 7.88414062 10.29796875 8.8125 10.375 C10.15248047 10.47941406 10.15248047 10.47941406 11.51953125 10.5859375 C14 11 14 11 17 13 C17 13.66 17 14.32 17 15 C12.41315804 14.44957896 8.35531499 13.51489217 4 12 C2.33911955 11.63893903 0.67381019 11.29537827 -1 11 C-1 10.34 -1 9.68 -1 9 C-2.35544922 8.92652344 -2.35544922 8.92652344 -3.73828125 8.8515625 C-4.91777344 8.77679688 -6.09726563 8.70203125 -7.3125 8.625 C-8.48425781 8.55539063 -9.65601563 8.48578125 -10.86328125 8.4140625 C-14 8 -14 8 -17 6 C-16.67 5.01 -16.34 4.02 -16 3 C-13.41796875 1.796875 -13.41796875 1.796875 -10.1875 0.75 C-9.12917969 0.39421875 -8.07085937 0.0384375 -6.98046875 -0.328125 C-4.09552272 -0.9784667 -2.71843369 -1.02681757 0 0 Z " fill="#F5918A" transform="translate(149,157)"/>
<path d="M0 0 C0.99 0 1.98 0 3 0 C3.33 0.66 3.66 1.32 4 2 C4.99 2.33 5.98 2.66 7 3 C7 3.66 7 4.32 7 5 C9.97 5.495 9.97 5.495 13 6 C13 6.66 13 7.32 13 8 C14.051875 8.1546875 14.051875 8.1546875 15.125 8.3125 C18.39137647 9.09359003 21.0471852 10.42058743 24 12 C24 12.66 24 13.32 24 14 C24.99 14 25.98 14 27 14 C27 14.66 27 15.32 27 16 C21.25 15.25 21.25 15.25 19 13 C17.01643517 12.28591666 15.01684563 11.61382258 13 11 C13 10.34 13 9.68 13 9 C12.113125 8.731875 11.22625 8.46375 10.3125 8.1875 C7 7 7 7 2 4 C2 8.62 2 13.24 2 18 C1.34 18 0.68 18 0 18 C0 12.06 0 6.12 0 0 Z " fill="#B1B0B2" transform="translate(170,36)"/>
<path d="M0 0 C2.97 0.495 2.97 0.495 6 1 C6 1.66 6 2.32 6 3 C6.66 3.0825 7.32 3.165 8 3.25 C10.64331941 3.91082985 12.43903256 4.67820465 14.8125 5.9375 C18.80191337 8.02719272 22.60413517 9.05802897 27 10 C27 10.66 27 11.32 27 12 C28.2375 12.1546875 28.2375 12.1546875 29.5 12.3125 C33.59289012 13.11646056 37.12540225 14.46352158 41 16 C41 16.33 41 16.66 41 17 C30.83673751 16.83607641 22.24443778 12.85688417 13 9 C13 8.34 13 7.68 13 7 C12.0925 6.87625 11.185 6.7525 10.25 6.625 C7.41029677 6.07890323 5.47409409 5.42736197 3 4 C3 3.34 3 2.68 3 2 C2.01 2 1.02 2 0 2 C0 1.34 0 0.68 0 0 Z " fill="#88888A" transform="translate(61,67)"/>
<path d="M0 0 C4.16413559 0.83282712 6.65536612 1.66079038 10.3125 3.5625 C11.19550781 4.01753906 12.07851563 4.47257812 12.98828125 4.94140625 C13.65214844 5.29074219 14.31601562 5.64007813 15 6 C15 6.66 15 7.32 15 8 C17.475 8.495 17.475 8.495 20 9 C20 9.66 20 10.32 20 11 C22.97 11.495 22.97 11.495 26 12 C26 12.66 26 13.32 26 14 C19.86277186 13.67698799 14.83769272 10.6043679 10 7 C10 6.34 10 5.68 10 5 C9.236875 4.855625 8.47375 4.71125 7.6875 4.5625 C5 4 5 4 2 3 C2 9.27 2 15.54 2 22 C1.34 22 0.68 22 0 22 C0 14.74 0 7.48 0 0 Z " fill="#C1C1C2" transform="translate(35,53)"/>
<path d="M0 0 C0.66 0 1.32 0 2 0 C6.69778441 9.39556881 4.09363418 25.65862531 4 36 C1.61051803 32.41577704 1.69766832 30.62767404 1.5859375 26.36328125 C1.54726562 25.06455078 1.50859375 23.76582031 1.46875 22.42773438 C1.43729483 21.05599427 1.40604749 19.68424939 1.375 18.3125 C1.33680803 16.92901215 1.29775558 15.54554777 1.2578125 14.16210938 C1.16339483 10.7748755 1.07781882 7.38764931 1 4 C-0.11375 4.66 -1.2275 5.32 -2.375 6 C-5.75 8 -5.75 8 -8 8 C-6.74874616 4.24623848 -5.4347596 3.75926711 -2 2 C-1.34 2 -0.68 2 0 2 C0 1.34 0 0.68 0 0 Z " fill="#F8B5B1" transform="translate(230,111)"/>
<path d="M0 0 C3.24271506 0.5590888 4.93057424 1.4132178 7 4 C7 4.66 7 5.32 7 6 C7.556875 6.0825 8.11375 6.165 8.6875 6.25 C11.71045973 7.23041937 13.58748494 8.95864111 16 11 C16.99 11.66 17.98 12.32 19 13 C19 13.66 19 14.32 19 15 C21.475 15.495 21.475 15.495 24 16 C24 16.66 24 17.32 24 18 C24.61875 18.309375 25.2375 18.61875 25.875 18.9375 C27.25 19.625 28.625 20.3125 30 21 C30 21.66 30 22.32 30 23 C25.33138019 21.39516194 20.90741833 19.02509806 17 16 C17 15.34 17 14.68 17 14 C16.4225 13.71125 15.845 13.4225 15.25 13.125 C13.16666667 12.08333333 11.08333333 11.04166667 9 10 C9 9.34 9 8.68 9 8 C8.401875 7.71125 7.80375 7.4225 7.1875 7.125 C5 6 5 6 2 4 C2 3.34 2 2.68 2 2 C1.34 2 0.68 2 0 2 C0 1.34 0 0.68 0 0 Z " fill="#B3B3B4" transform="translate(121,156)"/>
<path d="M0 0 C0 0.66 0 1.32 0 2 C-0.66 2 -1.32 2 -2 2 C-2.33 2.99 -2.66 3.98 -3 5 C-3.99 5 -4.98 5 -6 5 C-6 5.66 -6 6.32 -6 7 C-11.41176471 11 -11.41176471 11 -14 11 C-14.33 11.99 -14.66 12.98 -15 14 C-15.66 14 -16.32 14 -17 14 C-17 14.66 -17 15.32 -17 16 C-18.32 16.33 -19.64 16.66 -21 17 C-21 17.66 -21 18.32 -21 19 C-25.47058824 23 -25.47058824 23 -28 23 C-27.505 21.515 -27.505 21.515 -27 20 C-26.34 20 -25.68 20 -25 20 C-24.7525 19.360625 -24.505 18.72125 -24.25 18.0625 C-23 16 -23 16 -20.9375 15.4375 C-20.298125 15.293125 -19.65875 15.14875 -19 15 C-18.67 14.01 -18.34 13.02 -18 12 C-17.34 12 -16.68 12 -16 12 C-16 11.34 -16 10.68 -16 10 C-14.68 9.67 -13.36 9.34 -12 9 C-12 8.34 -12 7.68 -12 7 C-6.58823529 3 -6.58823529 3 -4 3 C-4 2.34 -4 1.68 -4 1 C-2 0 -2 0 0 0 Z " fill="#A9A8AA" transform="translate(214,103)"/>
<path d="M0 0 C0.66 0 1.32 0 2 0 C5.3822482 10.59771104 5.26447765 21.54297151 5.5625 32.5625 C5.60578362 34.06316078 5.6494007 35.56381197 5.69335938 37.06445312 C5.79941797 40.70953299 5.90096257 44.35472182 6 48 C5.67 48 5.34 48 5 48 C4.91959473 47.02240723 4.83918945 46.04481445 4.75634766 45.03759766 C4.45277187 41.36554544 4.14153146 37.69417436 3.828125 34.02294922 C3.6942395 32.44239233 3.56235592 30.8616644 3.43261719 29.28076172 C2.49354366 17.53710995 2.49354366 17.53710995 0.38037109 5.95849609 C0 4 0 4 0 0 Z " fill="#C2C2C3" transform="translate(113,179)"/>
<path d="M0 0 C-1.23302708 4.93210831 -2.71960878 7.21774571 -7 10 C-7.66 10 -8.32 10 -9 10 C-9.33 10.99 -9.66 11.98 -10 13 C-10.66 13 -11.32 13 -12 13 C-12 13.66 -12 14.32 -12 15 C-12.804375 15.28875 -13.60875 15.5775 -14.4375 15.875 C-17.1326468 16.73262568 -17.1326468 16.73262568 -18 19 C-18.66 19 -19.32 19 -20 19 C-20 19.66 -20 20.32 -20 21 C-21.32 20.67 -22.64 20.34 -24 20 C-23.34 20 -22.68 20 -22 20 C-22 19.34 -22 18.68 -22 18 C-17.52941176 14 -17.52941176 14 -15 14 C-15 13.34 -15 12.68 -15 12 C-14.360625 11.896875 -13.72125 11.79375 -13.0625 11.6875 C-12.381875 11.460625 -11.70125 11.23375 -11 11 C-10.67 10.01 -10.34 9.02 -10 8 C-9.34 8 -8.68 8 -8 8 C-7.7525 7.4225 -7.505 6.845 -7.25 6.25 C-5.58207452 3.24773413 -3.67725381 0 0 0 Z " fill="#F58B84" transform="translate(98,119)"/>
<path d="M0 0 C1.99097846 2.98646769 2.94124926 5.59687262 4 9 C4.66 7.35 5.32 5.7 6 4 C6.33 4 6.66 4 7 4 C7.20289367 16.4666891 7.20289367 16.4666891 6 22 C5.34 22.33 4.68 22.66 4 23 C4.495 18.545 4.495 18.545 5 14 C3.68 14.33 2.36 14.66 1 15 C1 14.34 1 13.68 1 13 C0.34 13 -0.32 13 -1 13 C-1.33 12.01 -1.66 11.02 -2 10 C-1.34 10 -0.68 10 0 10 C0 6.7 0 3.4 0 0 Z " fill="#E1C4C2" transform="translate(163,101)"/>
<path d="M0 0 C0 0.66 0 1.32 0 2 C-0.99 2 -1.98 2 -3 2 C-3 2.66 -3 3.32 -3 4 C-3.66 4.66 -4.32 5.32 -5 6 C-1.37 7.65 2.26 9.3 6 11 C6 11.66 6 12.32 6 13 C8.475 13.495 8.475 13.495 11 14 C11 14.66 11 15.32 11 16 C6.2308589 14.80771472 2.14073277 13.20458837 -2.203125 10.90234375 C-4.15307193 9.86945308 -4.15307193 9.86945308 -7 9 C-7 8.34 -7 7.68 -7 7 C-7.99 7 -8.98 7 -10 7 C-8.60449526 2.81348579 -4.64858615 0 0 0 Z " fill="#F9BDB9" transform="translate(83,47)"/>
<path d="M0 0 C2.97 0.495 2.97 0.495 6 1 C6 1.66 6 2.32 6 3 C7.32 3.33 8.64 3.66 10 4 C10.33 5.32 10.66 6.64 11 8 C10.34 8 9.68 8 9 8 C9 8.99 9 9.98 9 11 C7.68 11 6.36 11 5 11 C5 10.34 5 9.68 5 9 C2.69 8.67 0.38 8.34 -2 8 C-2.33 7.01 -2.66 6.02 -3 5 C-2.29875 5.144375 -1.5975 5.28875 -0.875 5.4375 C2.07556141 6.01478375 5.03270151 6.51695141 8 7 C8 6.34 8 5.68 8 5 C6.8553125 4.5978125 6.8553125 4.5978125 5.6875 4.1875 C3.12619116 3.05575888 1.80307062 2.08776599 0 0 Z " fill="#F69E98" transform="translate(130,86)"/>
<path d="M0 0 C0.33 0 0.66 0 1 0 C1.28125 15.53125 1.28125 15.53125 -2 21 C-1.34 20.67 -0.68 20.34 0 20 C0.33 19.01 0.66 18.02 1 17 C1.66 17 2.32 17 3 17 C3.33 16.01 3.66 15.02 4 14 C6.0625 13.3125 6.0625 13.3125 8 13 C7.67 13.99 7.34 14.98 7 16 C6.34 16 5.68 16 5 16 C4.67 16.99 4.34 17.98 4 19 C3.34 19 2.68 19 2 19 C1.67 19.99 1.34 20.98 1 22 C-0.32 22 -1.64 22 -3 22 C-3.16335585 16.76580643 -2.60552037 12.13693808 -1.5 7.0625 C-1.35691406 6.37865234 -1.21382812 5.69480469 -1.06640625 4.99023438 C-0.71716229 3.32550486 -0.35947054 1.66255125 0 0 Z " fill="#A7A7A8" transform="translate(166,124)"/>
<path d="M0 0 C1.65 0 3.3 0 5 0 C1.67692308 3.93846154 1.67692308 3.93846154 -1.75 4.25 C-2.4925 4.1675 -3.235 4.085 -4 4 C-4 4.66 -4 5.32 -4 6 C-5.98 6.33 -7.96 6.66 -10 7 C-10 7.66 -10 8.32 -10 9 C-11.98 9.33 -13.96 9.66 -16 10 C-16 10.66 -16 11.32 -16 12 C-17.65 12.33 -19.3 12.66 -21 13 C-21 12.34 -21 11.68 -21 11 C-18.09451118 8.95830515 -16.59857954 8 -13 8 C-13 7.34 -13 6.68 -13 6 C-9.535 5.505 -9.535 5.505 -6 5 C-6 4.34 -6 3.68 -6 3 C-4.02 2.67 -2.04 2.34 0 2 C0 1.34 0 0.68 0 0 Z " fill="#B0B0B2" transform="translate(101,107)"/>
<path d="M0 0 C4.0533866 4.0533866 3.05380853 11.64068176 3.0625 17.125 C3.041875 18.40375 3.02125 19.6825 3 21 C3.66 21 4.32 21 5 21 C5 23.64 5 26.28 5 29 C4.01 28.67 3.02 28.34 2 28 C1.65988375 24.83402429 1.32916813 21.6671312 1 18.5 C0.90460938 17.613125 0.80921875 16.72625 0.7109375 15.8125 C0.16485054 10.50765526 -0.0996753 5.33262848 0 0 Z " fill="#F7ABA6" transform="translate(154,55)"/>
<path d="M0 0 C0.33 0 0.66 0 1 0 C1.84327749 8.35748222 2.12190678 16.60197746 2 25 C1.34 25 0.68 25 0 25 C-0.85916865 22.02191841 -1.1285051 19.36501083 -1.1328125 16.26953125 C-1.13410156 15.38458984 -1.13539063 14.49964844 -1.13671875 13.58789062 C-1.13285156 12.67201172 -1.12898437 11.75613281 -1.125 10.8125 C-1.12886719 9.88501953 -1.13273438 8.95753906 -1.13671875 8.00195312 C-1.13542969 7.12087891 -1.13414062 6.23980469 -1.1328125 5.33203125 C-1.13168457 4.52483643 -1.13055664 3.7176416 -1.12939453 2.88598633 C-1 1 -1 1 0 0 Z " fill="#F8B3AE" transform="translate(234,165)"/>
<path d="M0 0 C2.26598448 3.39897673 2.23742654 4.56319173 2.1953125 8.54296875 C2.18886719 9.61611328 2.18242188 10.68925781 2.17578125 11.79492188 C2.15902344 12.91447266 2.14226563 14.03402344 2.125 15.1875 C2.11597656 16.31865234 2.10695312 17.44980469 2.09765625 18.61523438 C2.07406862 21.41036828 2.041153 24.20507845 2 27 C1.67 27 1.34 27 1 27 C0.67 25.35 0.34 23.7 0 22 C-0.33 22 -0.66 22 -1 22 C-0.67 14.74 -0.34 7.48 0 0 Z " fill="#727274" transform="translate(37,60)"/>
<path d="M0 0 C2.64 0.33 5.28 0.66 8 1 C8 1.66 8 2.32 8 3 C8.68707031 3.04898438 9.37414062 3.09796875 10.08203125 3.1484375 C10.98308594 3.22320312 11.88414062 3.29796875 12.8125 3.375 C13.70582031 3.44460937 14.59914062 3.51421875 15.51953125 3.5859375 C18 4 18 4 21 6 C21 6.66 21 7.32 21 8 C16.41315804 7.44957896 12.35531499 6.51489217 8 5 C6.33911955 4.63893903 4.67381019 4.29537827 3 4 C3 3.34 3 2.68 3 2 C2.01 2 1.02 2 0 2 C0 1.34 0 0.68 0 0 Z " fill="#F7A59F" transform="translate(145,164)"/>
<path d="M0 0 C1.32 0.33 2.64 0.66 4 1 C4 10.24 4 19.48 4 29 C3.67 29 3.34 29 3 29 C2.67 20.42 2.34 11.84 2 3 C0.02 3.33 -1.96 3.66 -4 4 C-2.25 1.9375 -2.25 1.9375 0 0 Z " fill="#F58E87" transform="translate(148,5)"/>
<path d="M0 0 C-0.33 1.32 -0.66 2.64 -1 4 C-3.31 4.33 -5.62 4.66 -8 5 C-8.33 5.99 -8.66 6.98 -9 8 C-9.99 8 -10.98 8 -12 8 C-12 8.66 -12 9.32 -12 10 C-13.65 10.33 -15.3 10.66 -17 11 C-17 11.66 -17 12.32 -17 13 C-17.66 13 -18.32 13 -19 13 C-19 12.01 -19 11.02 -19 10 C-12.25 6 -12.25 6 -10 6 C-10 5.34 -10 4.68 -10 4 C-8.71086513 3.32845067 -7.41859796 2.66291141 -6.125 2 C-5.40570313 1.62875 -4.68640625 1.2575 -3.9453125 0.875 C-2 0 -2 0 0 0 Z " fill="#F8B1AD" transform="translate(120,24)"/>
<path d="M0 0 C0.66 0.33 1.32 0.66 2 1 C2 4.63 2 8.26 2 12 C0.68 12 -0.64 12 -2 12 C-2 11.34 -2 10.68 -2 10 C-2.804375 9.87625 -3.60875 9.7525 -4.4375 9.625 C-5.283125 9.41875 -6.12875 9.2125 -7 9 C-7.33 8.34 -7.66 7.68 -8 7 C-5.03 7.495 -5.03 7.495 -2 8 C-1.855625 6.865625 -1.71125 5.73125 -1.5625 4.5625 C-1 1 -1 1 0 0 Z " fill="#F8ABA6" transform="translate(100,208)"/>
<path d="M0 0 C0.268125 0.639375 0.53625 1.27875 0.8125 1.9375 C1.88667752 4.33131686 1.88667752 4.33131686 5 5 C5 5.66 5 6.32 5 7 C3.35 6.67 1.7 6.34 0 6 C0.33 9.96 0.66 13.92 1 18 C0.34 17.67 -0.32 17.34 -1 17 C-1.47597366 14.29400158 -1.84093629 11.66404596 -2.125 8.9375 C-2.21136719 8.17888672 -2.29773438 7.42027344 -2.38671875 6.63867188 C-2.59939517 4.76003014 -2.80075459 2.88011364 -3 1 C-2.01 0.67 -1.02 0.34 0 0 Z " fill="#A2A2A4" transform="translate(109,143)"/>
<path d="M0 0 C0.33 0 0.66 0 1 0 C0.67 10.56 0.34 21.12 0 32 C-0.33 32 -0.66 32 -1 32 C-1.22682931 27.79245079 -1.42818993 23.58405176 -1.625 19.375 C-1.68945312 18.18519531 -1.75390625 16.99539062 -1.8203125 15.76953125 C-1.871875 14.61582031 -1.9234375 13.46210938 -1.9765625 12.2734375 C-2.02893066 11.21560059 -2.08129883 10.15776367 -2.13525391 9.06787109 C-1.98782329 5.72380404 -1.19516693 3.11232889 0 0 Z " fill="#F5928C" transform="translate(100,164)"/>
<path d="M0 0 C2.97 0.99 5.94 1.98 9 3 C9 3.66 9 4.32 9 5 C10.32 5 11.64 5 13 5 C13 6.32 13 7.64 13 9 C12.01 9 11.02 9 10 9 C10 9.66 10 10.32 10 11 C8.68 11.33 7.36 11.66 6 12 C6 11.34 6 10.68 6 10 C6.66 10 7.32 10 8 10 C8.33 9.01 8.66 8.02 9 7 C7.68 6.67 6.36 6.34 5 6 C5 5.34 5 4.68 5 4 C4.34 4 3.68 4 3 4 C3 3.34 3 2.68 3 2 C2.01 2 1.02 2 0 2 C0 1.34 0 0.68 0 0 Z " fill="#ABABAD" transform="translate(184,197)"/>
<path d="M0 0 C0.33 0.66 0.66 1.32 1 2 C-0.32 2.33 -1.64 2.66 -3 3 C-3 3.66 -3 4.32 -3 5 C-4.65 5.33 -6.3 5.66 -8 6 C-8 6.66 -8 7.32 -8 8 C-9.28913487 8.67154933 -10.58140204 9.33708859 -11.875 10 C-12.59429687 10.37125 -13.31359375 10.7425 -14.0546875 11.125 C-16 12 -16 12 -18 12 C-18 11.34 -18 10.68 -18 10 C-15.8828125 8.4921875 -15.8828125 8.4921875 -13.125 6.875 C-12.22007812 6.33617187 -11.31515625 5.79734375 -10.3828125 5.2421875 C-8 4 -8 4 -6 4 C-6 3.34 -6 2.68 -6 2 C-4.02 1.34 -2.04 0.68 0 0 Z " fill="#B6B5B7" transform="translate(188,209)"/>
<path d="M0 0 C2.97 0.495 2.97 0.495 6 1 C6 1.66 6 2.32 6 3 C7.2375 3.1546875 7.2375 3.1546875 8.5 3.3125 C12.59289012 4.11646056 16.12540225 5.46352158 20 7 C20 7.33 20 7.66 20 8 C13.69732561 7.63223832 8.66748157 6.83374078 3 4 C3 3.34 3 2.68 3 2 C2.01 2 1.02 2 0 2 C0 1.34 0 0.68 0 0 Z " fill="#B3B4B5" transform="translate(82,76)"/>
<path d="M0 0 C0 0.66 0 1.32 0 2 C-2.90548882 4.04169485 -4.40142046 5 -8 5 C-8 5.66 -8 6.32 -8 7 C-9.25 8.6875 -9.25 8.6875 -11 10 C-13.1875 9.6875 -13.1875 9.6875 -15 9 C-15 7.02 -15 5.04 -15 3 C-14.67 4.32 -14.34 5.64 -14 7 C-12.68 6.67 -11.36 6.34 -10 6 C-10 5.34 -10 4.68 -10 4 C-3.375 0 -3.375 0 0 0 Z " fill="#C2C2C3" transform="translate(133,244)"/>
<path d="M0 0 C6.6104333 1.34656975 12.06830376 3.81535981 18 7 C18 7.66 18 8.32 18 9 C15.03 8.505 15.03 8.505 12 8 C12 7.34 12 6.68 12 6 C9.03 5.505 9.03 5.505 6 5 C6 4.34 6 3.68 6 3 C3.03 2.505 3.03 2.505 0 2 C0 1.34 0 0.68 0 0 Z " fill="#FABFBB" transform="translate(196,183)"/>
<path d="M0 0 C1.2380014 3.57644848 0.74926071 6.33694766 0 10 C1.32 10 2.64 10 4 10 C4 10.66 4 11.32 4 12 C3.34 12 2.68 12 2 12 C2.33 14.31 2.66 16.62 3 19 C1 17 1 17 0 14 C-0.99 14.495 -0.99 14.495 -2 15 C-1.85973717 12.68715544 -1.71264442 10.37472409 -1.5625 8.0625 C-1.48128906 6.77472656 -1.40007812 5.48695313 -1.31640625 4.16015625 C-1 1 -1 1 0 0 Z " fill="#FBD6D3" transform="translate(104,132)"/>
<path d="M0 0 C4.97306516 0.49730652 8.63799813 1.55302334 13 4 C13 4.66 13 5.32 13 6 C13.99 6 14.98 6 16 6 C16 6.66 16 7.32 16 8 C10.25 7.25 10.25 7.25 8 5 C6.01643517 4.28591666 4.01684563 3.61382258 2 3 C2 2.34 2 1.68 2 1 C1.34 0.67 0.68 0.34 0 0 Z " fill="#9E9EA0" transform="translate(181,44)"/>
<path d="M0 0 C6.55925943 0.38979206 11.94526627 1.42113193 18 4 C18 4.99 18 5.98 18 7 C14.37 6.01 10.74 5.02 7 4 C7 3.34 7 2.68 7 2 C4.69 1.67 2.38 1.34 0 1 C0 0.67 0 0.34 0 0 Z " fill="#F8B4B0" transform="translate(166,172)"/>
<path d="M0 0 C0 0.66 0 1.32 0 2 C-5.41176471 6 -5.41176471 6 -8 6 C-8.33 7.32 -8.66 8.64 -9 10 C-11.31 10.66 -13.62 11.32 -16 12 C-16 11.34 -16 10.68 -16 10 C-15.01 10 -14.02 10 -13 10 C-12.67 9.01 -12.34 8.02 -12 7 C-10.35666496 5.96210419 -8.68756133 4.96432076 -7 4 C-5.98131338 3.01904252 -4.97648017 2.02297922 -4 1 C-2 0 -2 0 0 0 Z " fill="#F8ADA8" transform="translate(74,141)"/>
<path d="M0 0 C-1.32 0.33 -2.64 0.66 -4 1 C-4 1.66 -4 2.32 -4 3 C-5.32 3.33 -6.64 3.66 -8 4 C-8 4.66 -8 5.32 -8 6 C-9.65 6.33 -11.3 6.66 -13 7 C-13.33 7.99 -13.66 8.98 -14 10 C-14.99 10 -15.98 10 -17 10 C-17 9.34 -17 8.68 -17 8 C-16.34 8 -15.68 8 -15 8 C-15 7.34 -15 6.68 -15 6 C-13.35 5.67 -11.7 5.34 -10 5 C-10 4.34 -10 3.68 -10 3 C-8.68 2.67 -7.36 2.34 -6 2 C-6 1.34 -6 0.68 -6 0 C-3.50907189 -1.24546405 -2.58919267 -0.7767578 0 0 Z " fill="#BABBBC" transform="translate(64,130)"/>
<path d="M0 0 C2.61121846 3.9168277 3.12423233 6.50780612 3.09765625 11.10546875 C3.09282227 12.57983398 3.09282227 12.57983398 3.08789062 14.08398438 C3.07951172 15.10814453 3.07113281 16.13230469 3.0625 17.1875 C3.05798828 18.22326172 3.05347656 19.25902344 3.04882812 20.32617188 C3.0370401 22.88417266 3.02058515 25.44205733 3 28 C2.67 28 2.34 28 2 28 C1.93941406 26.78441406 1.87882813 25.56882812 1.81640625 24.31640625 C1.73201668 22.73175772 1.6473679 21.14712298 1.5625 19.5625 C1.52318359 18.76005859 1.48386719 17.95761719 1.44335938 17.13085938 C1.5945704 13.24760439 1.5945704 13.24760439 0 10 C-0.07205511 8.31391034 -0.08386068 6.62499341 -0.0625 4.9375 C-0.05347656 4.01839844 -0.04445312 3.09929688 -0.03515625 2.15234375 C-0.02355469 1.44207031 -0.01195312 0.73179688 0 0 Z " fill="#6C6D6F" transform="translate(171,54)"/>
<path d="M0 0 C2.475 0.495 2.475 0.495 5 1 C5 1.66 5 2.32 5 3 C7.97 3.495 7.97 3.495 11 4 C11 4.66 11 5.32 11 6 C12.65 6.33 14.3 6.66 16 7 C16 7.66 16 8.32 16 9 C16.66 9 17.32 9 18 9 C18 9.66 18 10.32 18 11 C14.9168649 9.80100302 11.93720508 8.52299523 9 7 C9 6.34 9 5.68 9 5 C8.2575 4.87625 7.515 4.7525 6.75 4.625 C4.19858515 4.04513299 2.2732427 3.26291261 0 2 C0 1.34 0 0.68 0 0 Z " fill="#F7A9A4" transform="translate(95,63)"/>
<path d="M0 0 C3.3774272 0.58231503 4.66104278 1.57108289 7 4 C8.546875 4.9590625 8.546875 4.9590625 10.125 5.9375 C13 8 13 8 13.875 10.25 C13.936875 11.11625 13.936875 11.11625 14 12 C13.01 11.67 12.02 11.34 11 11 C11 10.34 11 9.68 11 9 C10.01 8.67 9.02 8.34 8 8 C8 7.34 8 6.68 8 6 C7.236875 5.896875 6.47375 5.79375 5.6875 5.6875 C2.81583516 4.95288806 1.76957906 4.3283935 0 2 C0 1.34 0 0.68 0 0 Z " fill="#F38881" transform="translate(142,94)"/>
<path d="M0 0 C0.66 0 1.32 0 2 0 C2.33 3.63 2.66 7.26 3 11 C-2.8490566 9.83018868 -2.8490566 9.83018868 -5 7 C-5 6.34 -5 5.68 -5 5 C-3.02 5.66 -1.04 6.32 1 7 C0.67 4.69 0.34 2.38 0 0 Z " fill="#F5867E" transform="translate(161,101)"/>
<path d="M0 0 C0.33 0.99 0.66 1.98 1 3 C1.99 3 2.98 3 4 3 C4.33 4.32 4.66 5.64 5 7 C4.01 7 3.02 7 2 7 C2 7.66 2 8.32 2 9 C-0.31 9.33 -2.62 9.66 -5 10 C-3.74458443 7.48916886 -2.49936512 7.12874554 0 6 C0 4.02 0 2.04 0 0 Z " fill="#E9CAC8" transform="translate(162,143)"/>
<path d="M0 0 C1.51663393 3.03326785 1.17097474 5.878846 1.1875 9.25 C1.20167969 10.55453125 1.21585937 11.8590625 1.23046875 13.203125 C1.00922548 16.84801408 0.32827399 19.61893893 -1 23 C-1.33 23 -1.66 23 -2 23 C-1.86183041 19.35383329 -1.71318466 15.70816926 -1.5625 12.0625 C-1.50352539 10.50112305 -1.50352539 10.50112305 -1.44335938 8.90820312 C-1.40146484 7.91884766 -1.35957031 6.92949219 -1.31640625 5.91015625 C-1.27974854 4.99371338 -1.24309082 4.07727051 -1.20532227 3.13305664 C-1 1 -1 1 0 0 Z " fill="#F15B52" transform="translate(100,147)"/>
<path d="M0 0 C0.33 0.66 0.66 1.32 1 2 C0.67 2.66 0.34 3.32 0 4 C-3.0625 4.625 -3.0625 4.625 -6 5 C-6 5.66 -6 6.32 -6 7 C-7.65 7.33 -9.3 7.66 -11 8 C-11 7.34 -11 6.68 -11 6 C-8.09451118 3.95830515 -6.59857954 3 -3 3 C-3 2.34 -3 1.68 -3 1 C-2.01 0.67 -1.02 0.34 0 0 Z " fill="#A5A4A7" transform="translate(91,112)"/>
<path d="M0 0 C0 0.66 0 1.32 0 2 C-0.66 2 -1.32 2 -2 2 C-2.33 2.99 -2.66 3.98 -3 5 C-3.99 5 -4.98 5 -6 5 C-6 5.66 -6 6.32 -6 7 C-7.65 7.66 -9.3 8.32 -11 9 C-9.9024777 6.00675737 -9.32317108 5.15389099 -6.375 3.75 C-5.59125 3.5025 -4.8075 3.255 -4 3 C-4 2.34 -4 1.68 -4 1 C-2 0 -2 0 0 0 Z " fill="#B4B4B5" transform="translate(214,103)"/>
<path d="M0 0 C0 0.66 0 1.32 0 2 C-4.455 2.495 -4.455 2.495 -9 3 C-9 3.66 -9 4.32 -9 5 C-10.32 5 -11.64 5 -13 5 C-13 4.01 -13 3.02 -13 2 C-11.58461283 1.66127487 -10.16762037 1.32925376 -8.75 1 C-7.56664063 0.7215625 -7.56664063 0.7215625 -6.359375 0.4375 C-4 0 -4 0 0 0 Z " fill="#B6B5B7" transform="translate(134,97)"/>
<path d="M0 0 C-0.125 1.8125 -0.125 1.8125 -1 4 C-6.03571429 7 -6.03571429 7 -9 7 C-8.67 6.01 -8.34 5.02 -8 4 C-7.34 4 -6.68 4 -6 4 C-5.67 3.01 -5.34 2.02 -5 1 C-2 0 -2 0 0 0 Z " fill="#F4837B" transform="translate(107,112)"/>
<path d="M0 0 C0.66 0 1.32 0 2 0 C2 0.99 2 1.98 2 3 C0.37750059 3.83819158 -1.24808497 4.6704116 -2.875 5.5 C-4.23238281 6.19609375 -4.23238281 6.19609375 -5.6171875 6.90625 C-8 8 -8 8 -10 8 C-10 7.34 -10 6.68 -10 6 C-8.35 5.67 -6.7 5.34 -5 5 C-5 4.34 -5 3.68 -5 3 C-3.35 2.67 -1.7 2.34 0 2 C0 1.34 0 0.68 0 0 Z " fill="#F7A39E" transform="translate(98,36)"/>
<path d="M0 0 C1.32 0.33 2.64 0.66 4 1 C4 1.66 4 2.32 4 3 C4.763125 3.12375 5.52625 3.2475 6.3125 3.375 C9 4 9 4 12 6 C12 6.66 12 7.32 12 8 C10.35 7.67 8.7 7.34 7 7 C7 6.34 7 5.68 7 5 C5.35 4.67 3.7 4.34 2 4 C2 3.34 2 2.68 2 2 C1.34 2 0.68 2 0 2 C0 1.34 0 0.68 0 0 Z " fill="#A8A8AA" transform="translate(162,185)"/>
<path d="M0 0 C0.66 0 1.32 0 2 0 C3.80230168 3.82989106 4.19622241 6.78121808 4 11 C3.01 10.67 2.02 10.34 1 10 C0.67 6.7 0.34 3.4 0 0 Z " fill="#9E9E9F" transform="translate(110,164)"/>
<path d="M0 0 C3.24271506 0.5590888 4.93057424 1.4132178 7 4 C7 4.66 7 5.32 7 6 C7.639375 6.12375 8.27875 6.2475 8.9375 6.375 C9.618125 6.58125 10.29875 6.7875 11 7 C11.33 7.66 11.66 8.32 12 9 C8.12697862 7.85569823 4.99736561 6.76679902 2 4 C2 3.34 2 2.68 2 2 C1.34 2 0.68 2 0 2 C0 1.34 0 0.68 0 0 Z " fill="#B3B3B5" transform="translate(121,156)"/>
<path d="M0 0 C-0.75 1.9375 -0.75 1.9375 -2 4 C-4.125 4.75 -4.125 4.75 -6 5 C-6 5.66 -6 6.32 -6 7 C-7.65 7.33 -9.3 7.66 -11 8 C-11 7.34 -11 6.68 -11 6 C-10.01 6 -9.02 6 -8 6 C-7.67 5.01 -7.34 4.02 -7 3 C-6.01 3 -5.02 3 -4 3 C-4 2.34 -4 1.68 -4 1 C-2 0 -2 0 0 0 Z " fill="#F8AFAA" transform="translate(221,119)"/>
<path d="M0 0 C1.65 0 3.3 0 5 0 C5 0.66 5 1.32 5 2 C6.98 2 8.96 2 11 2 C11 2.66 11 3.32 11 4 C7.37 3.67 3.74 3.34 0 3 C0 2.01 0 1.02 0 0 Z " fill="#A4A4A5" transform="translate(115,88)"/>
<path d="M0 0 C0.33 1.32 0.66 2.64 1 4 C1.66 4 2.32 4 3 4 C3 6.97 3 9.94 3 13 C2.34 13 1.68 13 1 13 C-0.10228696 8.59085217 -0.07654536 4.51617599 0 0 Z " fill="#F47870" transform="translate(233,186)"/>
<path d="M0 0 C1.0725 0.309375 2.145 0.61875 3.25 0.9375 C5.82866222 1.66812096 8.39512102 2.37482904 11 3 C11 3.66 11 4.32 11 5 C8.03 4.67 5.06 4.34 2 4 C2 3.34 2 2.68 2 2 C1.34 2 0.68 2 0 2 C0 1.34 0 0.68 0 0 Z " fill="#A4A4A5" transform="translate(103,84)"/>
<path d="M0 0 C4.75 0.875 4.75 0.875 7 2 C7 2.66 7 3.32 7 4 C7.66 4 8.32 4 9 4 C9 4.66 9 5.32 9 6 C9.66 6 10.32 6 11 6 C11 6.66 11 7.32 11 8 C7.16098132 7.45156876 5.63836495 5.7234735 3 3 C2.01 2.67 1.02 2.34 0 2 C0 1.34 0 0.68 0 0 Z " fill="#F8B3AE" transform="translate(118,77)"/>
<path d="M0 0 C3.465 1.485 3.465 1.485 7 3 C7 3.66 7 4.32 7 5 C8.65 5.33 10.3 5.66 12 6 C12 6.66 12 7.32 12 8 C8.20696275 6.99806563 5.28463659 6.18975773 2 4 C2 3.34 2 2.68 2 2 C1.34 2 0.68 2 0 2 C0 1.34 0 0.68 0 0 Z " fill="#F7A9A4" transform="translate(82,55)"/>
<path d="M0 0 C2.475 0.495 2.475 0.495 5 1 C5 1.66 5 2.32 5 3 C4.01 3 3.02 3 2 3 C2 5.64 2 8.28 2 11 C-0.32590854 7.36576791 -0.16265833 4.22911669 0 0 Z " fill="#A2A2A3" transform="translate(35,53)"/>
<path d="M0 0 C2.97 0.495 2.97 0.495 6 1 C6 1.66 6 2.32 6 3 C7.65 3.33 9.3 3.66 11 4 C11 4.99 11 5.98 11 7 C10.34 7 9.68 7 9 7 C9 6.34 9 5.68 9 5 C7.35 4.67 5.7 4.34 4 4 C4 3.34 4 2.68 4 2 C2.68 1.67 1.36 1.34 0 1 C0 0.67 0 0.34 0 0 Z " fill="#F9C3BF" transform="translate(224,198)"/>
<path d="M0 0 C4.60272162 1.77027754 7.7129243 3.18699218 11 7 C10.67 7.66 10.34 8.32 10 9 C9.34 8.67 8.68 8.34 8 8 C8 7.34 8 6.68 8 6 C7.4225 5.71125 6.845 5.4225 6.25 5.125 C4.16666667 4.08333333 2.08333333 3.04166667 0 2 C0 1.34 0 0.68 0 0 Z " fill="#A1A2A3" transform="translate(130,164)"/>
<path d="M0 0 C2.97 0.495 2.97 0.495 6 1 C6 1.66 6 2.32 6 3 C7.175625 3.185625 7.175625 3.185625 8.375 3.375 C11 4 11 4 13 6 C9.7 5.34 6.4 4.68 3 4 C3 3.34 3 2.68 3 2 C2.01 2 1.02 2 0 2 C0 1.34 0 0.68 0 0 Z " fill="#B1B1B2" transform="translate(61,67)"/>
<path d="M0 0 C0 0.66 0 1.32 0 2 C-0.99 2 -1.98 2 -3 2 C-3 2.66 -3 3.32 -3 4 C-3.99 4 -4.98 4 -6 4 C-6.33 5.32 -6.66 6.64 -7 8 C-7.66 7.67 -8.32 7.34 -9 7 C-8.67 5.68 -8.34 4.36 -8 3 C-7.01 3 -6.02 3 -5 3 C-5 2.34 -5 1.68 -5 1 C-2 0 -2 0 0 0 Z " fill="#F8BBB6" transform="translate(29,171)"/>
<path d="M0 0 C-0.33 1.32 -0.66 2.64 -1 4 C-3.97 4.66 -6.94 5.32 -10 6 C-10 5.34 -10 4.68 -10 4 C-8.71086513 3.32845067 -7.41859796 2.66291141 -6.125 2 C-5.40570313 1.62875 -4.68640625 1.2575 -3.9453125 0.875 C-2 0 -2 0 0 0 Z " fill="#F7A09A" transform="translate(120,24)"/>
<path d="M0 0 C-1.65 0.66 -3.3 1.32 -5 2 C-5 2.66 -5 3.32 -5 4 C-6.65 4.33 -8.3 4.66 -10 5 C-10 4.34 -10 3.68 -10 3 C-9.34 3 -8.68 3 -8 3 C-8 2.34 -8 1.68 -8 1 C-3.375 -1.125 -3.375 -1.125 0 0 Z " fill="#B6B6B7" transform="translate(153,233)"/>
<path d="M0 0 C0 0.66 0 1.32 0 2 C-1.65 2.33 -3.3 2.66 -5 3 C-5 3.66 -5 4.32 -5 5 C-6.65 5.33 -8.3 5.66 -10 6 C-10 5.34 -10 4.68 -10 4 C-9.34 4 -8.68 4 -8 4 C-8 3.34 -8 2.68 -8 2 C-5.09399739 0.74335022 -3.20395416 0 0 0 Z " fill="#B4B4B5" transform="translate(79,120)"/>
<path d="M0 0 C0 0.66 0 1.32 0 2 C-1.32 2 -2.64 2 -4 2 C-4 2.66 -4 3.32 -4 4 C-5.98 4.33 -7.96 4.66 -10 5 C-10 4.34 -10 3.68 -10 3 C-6.27034861 0.96564469 -4.33094958 0 0 0 Z " fill="#9F9FA1" transform="translate(120,101)"/>
<path d="M0 0 C3.02419525 0.58803797 6.01758453 1.22678118 9 2 C8.67 3.32 8.34 4.64 8 6 C8 5.34 8 4.68 8 4 C5.69 3.67 3.38 3.34 1 3 C0.67 2.01 0.34 1.02 0 0 Z " fill="#A1A1A2" transform="translate(127,91)"/>
<path d="M0 0 C5 2 5 2 10 4 C10 4.66 10 5.32 10 6 C5.8333396 5.52651586 3.07115285 4.95303159 0 2 C0 1.34 0 0.68 0 0 Z " fill="#BABABB" transform="translate(152,179)"/>
<path d="M0 0 C0 0.66 0 1.32 0 2 C-3.07115285 4.95303159 -5.8333396 5.52651586 -10 6 C-10 5.34 -10 4.68 -10 4 C-8.35 3.67 -6.7 3.34 -5 3 C-5 2.34 -5 1.68 -5 1 C-2 0 -2 0 0 0 Z " fill="#F8B4B0" transform="translate(204,130)"/>
<path d="M0 0 C1.32 0.33 2.64 0.66 4 1 C4 2.32 4 3.64 4 5 C1.69 5.66 -0.62 6.32 -3 7 C-3 6.34 -3 5.68 -3 5 C-2.01 5 -1.02 5 0 5 C0 3.35 0 1.7 0 0 Z " fill="#C3C3C4" transform="translate(247,78)"/>
<path d="M0 0 C2.64 0.33 5.28 0.66 8 1 C8 1.99 8 2.98 8 4 C6.35 4 4.7 4 3 4 C3 3.34 3 2.68 3 2 C2.01 2 1.02 2 0 2 C0 1.34 0 0.68 0 0 Z " fill="#F68C85" transform="translate(145,164)"/>
<path d="M0 0 C-1.32 0.33 -2.64 0.66 -4 1 C-4 1.66 -4 2.32 -4 3 C-3.34 3 -2.68 3 -2 3 C-2 3.66 -2 4.32 -2 5 C-4.475 4.01 -4.475 4.01 -7 3 C-6.67 2.01 -6.34 1.02 -6 0 C-3.50907189 -1.24546405 -2.58919267 -0.7767578 0 0 Z " fill="#FCD9D7" transform="translate(139,160)"/>
<path d="M0 0 C0.763125 0.309375 1.52625 0.61875 2.3125 0.9375 C4.18789677 1.67893593 6.08684652 2.36228217 8 3 C8 3.66 8 4.32 8 5 C2.25 4.125 2.25 4.125 0 3 C0 2.01 0 1.02 0 0 Z " fill="#A3A3A5" transform="translate(238,73)"/>
<path d="M0 0 C5 2 5 2 10 4 C10 4.66 10 5.32 10 6 C6.20696275 4.99806563 3.28463659 4.18975773 0 2 C0 1.34 0 0.68 0 0 Z " fill="#BCBCBD" transform="translate(227,67)"/>
<path d="M0 0 C0.33 0 0.66 0 1 0 C1 1.65 1 3.3 1 5 C1.66 5 2.32 5 3 5 C2.67 6.32 2.34 7.64 2 9 C-0.475 8.01 -0.475 8.01 -3 7 C-2.67 6.34 -2.34 5.68 -2 5 C-1.34 5.33 -0.68 5.66 0 6 C0 4.02 0 2.04 0 0 Z " fill="#F15D53" transform="translate(233,194)"/>
<path d="M0 0 C4.75 1.875 4.75 1.875 7 3 C7 3.66 7 4.32 7 5 C4.03 4.505 4.03 4.505 1 4 C0.67 2.68 0.34 1.36 0 0 Z " fill="#F7ABA5" transform="translate(207,187)"/>
<path d="M0 0 C2.97 0.495 2.97 0.495 6 1 C6 1.66 6 2.32 6 3 C6.99 3 7.98 3 9 3 C9 3.66 9 4.32 9 5 C6.03 4.01 3.06 3.02 0 2 C0 1.34 0 0.68 0 0 Z " fill="#F8ABA7" transform="translate(185,178)"/>
<path d="M0 0 C3.37705625 0.53725895 6.696686 1.11064623 10 2 C10 2.66 10 3.32 10 4 C7.36 3.67 4.72 3.34 2 3 C2 2.34 2 1.68 2 1 C1.34 0.67 0.68 0.34 0 0 Z " fill="#F7A9A5" transform="translate(135,162)"/>
<path d="M0 0 C1.32 0 2.64 0 4 0 C4 0.66 4 1.32 4 2 C3.34 2 2.68 2 2 2 C2.33 4.31 2.66 6.62 3 9 C0.23776722 6.23776722 0.42143709 3.79293383 0 0 Z " fill="#D0D0D1" transform="translate(104,142)"/>
<path d="M0 0 C-0.33 0.99 -0.66 1.98 -1 3 C-1.66 3 -2.32 3 -3 3 C-3 3.66 -3 4.32 -3 5 C-4.375 6.625 -4.375 6.625 -6 8 C-6.66 8 -7.32 8 -8 8 C-6.48291727 4.46014029 -4.24676932 0 0 0 Z " fill="#F9B9B6" transform="translate(98,119)"/>
<path d="M0 0 C0.66 0.33 1.32 0.66 2 1 C1.01 2.485 1.01 2.485 0 4 C-3.625 4.6875 -3.625 4.6875 -7 5 C-6.67 4.34 -6.34 3.68 -6 3 C-5.01 3 -4.02 3 -3 3 C-3 2.34 -3 1.68 -3 1 C-2.01 0.67 -1.02 0.34 0 0 Z " fill="#F8AAA5" transform="translate(128,18)"/>
<path d="M0 0 C0 0.66 0 1.32 0 2 C-2.90548882 4.04169485 -4.40142046 5 -8 5 C-8 4.34 -8 3.68 -8 3 C-7.01 3 -6.02 3 -5 3 C-5 2.34 -5 1.68 -5 1 C-2 0 -2 0 0 0 Z " fill="#F7A9A4" transform="translate(187,139)"/>
<path d="M0 0 C0.99 0.33 1.98 0.66 3 1 C3 1.66 3 2.32 3 3 C2.34 3 1.68 3 1 3 C1 3.99 1 4.98 1 6 C0.01 6 -0.98 6 -2 6 C-2 4.68 -2 3.36 -2 2 C-1.34 2 -0.68 2 0 2 C0 1.34 0 0.68 0 0 Z " fill="#E1D5D4" transform="translate(138,91)"/>
<path d="M0 0 C1.32 0.33 2.64 0.66 4 1 C4 1.66 4 2.32 4 3 C4.99 3 5.98 3 7 3 C7 3.66 7 4.32 7 5 C4.03 4.505 4.03 4.505 1 4 C0.67 2.68 0.34 1.36 0 0 Z " fill="#9E9DA0" transform="translate(210,58)"/>
<path d="M0 0 C0 0.99 0 1.98 0 3 C-4.22222222 6 -4.22222222 6 -7 6 C-7 5.34 -7 4.68 -7 4 C-4.69 2.68 -2.38 1.36 0 0 Z " fill="#A6A5A8" transform="translate(177,215)"/>
<path d="M0 0 C0.99 0.33 1.98 0.66 3 1 C3 3.31 3 5.62 3 8 C2.34 7.67 1.68 7.34 1 7 C0.59270772 4.67843403 0.25561323 2.3431213 0 0 Z " fill="#F36D65" transform="translate(98,200)"/>
<path d="M0 0 C0 0.66 0 1.32 0 2 C-0.99 2 -1.98 2 -3 2 C-3 2.66 -3 3.32 -3 4 C-4.32 3.67 -5.64 3.34 -7 3 C-7 2.34 -7 1.68 -7 1 C-4 0 -4 0 0 0 Z " fill="#F7A29D" transform="translate(157,153)"/>
<path d="M0 0 C3.24271506 0.5590888 4.93057424 1.4132178 7 4 C7 4.66 7 5.32 7 6 C3.75728494 5.4409112 2.06942576 4.5867822 0 2 C0 1.34 0 0.68 0 0 Z " fill="#F8B0AB" transform="translate(142,94)"/>
<path d="M0 0 C-4.75 4 -4.75 4 -7 4 C-6.6875 2.0625 -6.6875 2.0625 -6 0 C-3 -1 -3 -1 0 0 Z " fill="#B2B2B3" transform="translate(236,90)"/>
</svg>
